<?xml version="1.0" encoding="UTF-8" standalone="no"?>
<svg
   viewBox="0 0 128 128"
   version="1.1"
   id="svg8"
   sodipodi:docname="bash.svg"
   inkscape:version="1.1.2 (1:1.1+202202050950+0a00cf5339)"
   xmlns:inkscape="http://www.inkscape.org/namespaces/inkscape"
   xmlns:sodipodi="http://sodipodi.sourceforge.net/DTD/sodipodi-0.dtd"
   xmlns="http://www.w3.org/2000/svg"
   xmlns:svg="http://www.w3.org/2000/svg">
  <defs
     id="defs12" />
  <sodipodi:namedview
     id="namedview10"
     pagecolor="#ffffff"
     bordercolor="#666666"
     borderopacity="1.0"
     inkscape:pageshadow="2"
     inkscape:pageopacity="0.0"
     inkscape:pagecheckerboard="0"
     showgrid="false"
     inkscape:zoom="6.59375"
     inkscape:cx="63.924171"
     inkscape:cy="64.075829"
     inkscape:window-width="1848"
     inkscape:window-height="1016"
     inkscape:window-x="72"
     inkscape:window-y="27"
     inkscape:window-maximized="1"
     inkscape:current-layer="svg8" />
  <path
     fill="none"
     d="M4.24 4.24h119.53v119.53H4.24z"
     id="path2" />
  <path
     fill="#293138"
     d="M109.01 28.64L71.28 6.24c-2.25-1.33-4.77-2-7.28-2s-5.03.67-7.28 2.01l-37.74 22.4c-4.5 2.67-7.28 7.61-7.28 12.96v44.8c0 5.35 2.77 10.29 7.28 12.96l37.73 22.4c2.25 1.34 4.76 2 7.28 2 2.51 0 5.03-.67 7.28-2l37.74-22.4c4.5-2.67 7.28-7.62 7.28-12.96V41.6c0-5.34-2.77-10.29-7.28-12.96zM79.79 98.59l.06 3.22c0 .39-.25.83-.55.99l-1.91 1.1c-.3.15-.56-.03-.56-.42l-.03-3.17c-1.63.68-3.29.84-4.34.42-.2-.08-.29-.37-.21-.71l.69-2.91c.06-.23.18-.46.34-.6.06-.06.12-.1.18-.13.11-.06.22-.07.31-.03 1.14.38 2.59.2 3.99-.5 1.78-.9 2.97-2.72 2.95-4.52-.02-1.64-.9-2.31-3.05-2.33-2.74.01-5.3-.53-5.34-4.57-.03-3.32 1.69-6.78 4.43-8.96l-.03-3.25c0-.4.24-.84.55-1l1.85-1.18c.3-.15.56.04.56.43l.03 3.25c1.36-.54 2.54-.69 3.61-.44.23.06.34.38.24.75l-.72 2.88c-.06.22-.18.44-.33.58a.77.77 0 01-.19.14c-.1.05-.19.06-.28.05-.49-.11-1.65-.36-3.48.56-1.92.97-2.59 2.64-2.58 3.88.02 1.48.77 1.93 3.39 1.97 3.49.06 4.99 1.58 5.03 5.09.05 3.44-1.79 7.15-4.61 9.41zm26.34-60.5l-35.7 22.05c-4.45 2.6-7.73 5.52-7.74 10.89v43.99c0 3.21 1.3 5.29 3.29 5.9-.65.11-1.32.19-1.98.19-2.09 0-4.15-.57-5.96-1.64l-37.73-22.4c-3.69-2.19-5.98-6.28-5.98-10.67V41.6c0-4.39 2.29-8.48 5.98-10.67l37.74-22.4c1.81-1.07 3.87-1.64 5.96-1.64s4.15.57 5.96 1.64l37.74 22.4c3.11 1.85 5.21 5.04 5.8 8.63-1.27-2.67-4.09-3.39-7.38-1.47z"
     id="path4" />
  <path
     fill="#4FA847"
     d="M99.12 90.73l-9.4 5.62c-.25.15-.43.31-.43.61v2.46c0 .3.2.43.45.28l9.54-5.8c.25-.15.29-.42.29-.72v-2.17c0-.3-.2-.42-.45-.28z"
     id="path6" />
  <path
     style="fill:#ffffff;stroke-width:0.151659"
     d="m 76.992101,103.70932 c -0.05561,-0.0556 -0.101106,-0.86741 -0.101106,-1.804 v -1.7029 l -0.947867,0.30406 c -1.619981,0.51967 -3.601896,0.41995 -3.601896,-0.18122 0,-0.386416 0.566106,-2.846024 0.774835,-3.366495 0.209482,-0.522344 0.359374,-0.570792 1.304002,-0.421465 1.62494,0.256867 3.740478,-0.512951 4.916878,-1.789195 1.707145,-1.852034 1.913559,-4.65679 0.400303,-5.439325 -0.314534,-0.162652 -1.130404,-0.295786 -2.320346,-0.378634 -2.7215,-0.189481 -3.817283,-0.683327 -4.459395,-2.009756 -1.423332,-2.940211 0.05697,-7.903544 3.22922,-10.8273 l 0.701172,-0.646247 -0.09031,-1.552805 c -0.05603,-0.963392 -0.0288,-1.709232 0.07174,-1.964909 0.197525,-0.502335 2.176722,-1.865381 2.518288,-1.73431 0.1914,0.07345 0.233233,0.406345 0.233233,1.856024 0,1.762953 6.83e-4,1.766305 0.341232,1.658159 1.656511,-0.526057 3.333636,-0.601279 3.504059,-0.157163 0.09757,0.254272 -0.728569,3.510728 -0.962007,3.792003 -0.124437,0.149937 -0.472555,0.213232 -1.115041,0.202738 -1.197526,-0.01956 -1.798361,0.116121 -2.829854,0.639044 -1.646121,0.834512 -2.568927,2.224788 -2.574869,3.879232 -0.0058,1.620222 0.42458,1.876545 3.616161,2.153596 2.800508,0.243103 3.958166,1.050268 4.490487,3.130947 0.811593,3.172268 -0.581777,7.373129 -3.410317,10.281741 l -0.908192,0.933903 v 1.722707 c 0,0.94749 -0.0694,1.85238 -0.154213,2.01086 -0.147359,0.27534 -2.099831,1.51182 -2.387255,1.51182 -0.07581,0 -0.183335,-0.0455 -0.238943,-0.10111 z"
     id="path88" />
  <path
     style="fill:#ffffff;stroke-width:0.151659"
     d="M 62.644259,120.94218 C 61.564425,120.79415 59.775818,120.28539 59.07109,119.92583 57.455057,119.10131 20.036014,96.786929 19.158439,96.124422 17.191012,94.639157 15.586806,92.227511 14.831744,89.619987 L 14.483412,88.417062 V 64 39.582938 l 0.348332,-1.202925 c 0.755262,-2.608214 2.360257,-5.020689 4.326695,-6.503477 C 20.533303,30.839824 58.460656,8.338819 59.645304,7.8570602 62.528557,6.684532 66.008638,6.7446607 68.763652,8.0146068 69.550426,8.3772767 107.1923,30.678577 108.43602,31.518896 c 1.71424,1.158221 3.52888,3.51505 4.3155,5.604909 0.55524,1.47513 0.50816,1.62466 -0.28214,0.896184 -1.43066,-1.318731 -3.55862,-1.423847 -5.79731,-0.286373 -1.39431,0.708451 -38.167186,23.468786 -39.272963,24.307752 -2.147493,1.629323 -3.554885,3.46946 -4.272768,5.586551 L 62.7109,68.853081 v 24.037914 c 0,23.386255 0.008,24.062265 0.294423,24.936205 0.345379,1.05377 0.974876,1.93084 1.882882,2.6234 0.483571,0.36883 0.576042,0.49727 0.358022,0.49727 -0.161667,0 -0.593512,0.0288 -0.959657,0.0641 -0.366144,0.0352 -1.105185,0.004 -1.642311,-0.0698 z"
     id="path127" />
</svg>
