<?xml version="1.0" encoding="UTF-8" standalone="no"?>
<svg
   viewBox="0 0 128 128"
   version="1.1"
   id="svg4"
   sodipodi:docname="flask.svg"
   inkscape:version="1.2.2 (b0a84865, 2022-12-01)"
   xmlns:inkscape="http://www.inkscape.org/namespaces/inkscape"
   xmlns:sodipodi="http://sodipodi.sourceforge.net/DTD/sodipodi-0.dtd"
   xmlns="http://www.w3.org/2000/svg"
   xmlns:svg="http://www.w3.org/2000/svg">
  <defs
     id="defs8" />
  <sodipodi:namedview
     id="namedview6"
     pagecolor="#ffffff"
     bordercolor="#000000"
     borderopacity="0.25"
     inkscape:showpageshadow="2"
     inkscape:pageopacity="0.0"
     inkscape:pagecheckerboard="0"
     inkscape:deskcolor="#d1d1d1"
     showgrid="false"
     inkscape:zoom="4.8229806"
     inkscape:cx="72.672903"
     inkscape:cy="72.880244"
     inkscape:window-width="1621"
     inkscape:window-height="763"
     inkscape:window-x="0"
     inkscape:window-y="25"
     inkscape:window-maximized="0"
     inkscape:current-layer="svg4" />
  <path
     fill="#010101"
     d="M44.44 100.63c-4.23-3.33-8.74-6.52-11.83-11.01-6.49-7.92-11.49-17.1-14.9-26.74-2.07-6.27-2.77-12.99-5.44-19.02-2.78-4.38.48-9.16 5.27-10.55 2.13-.41 5.89-2.43 1.36-.98-4.06 2.98-4.45-2.71-.29-3.07 2.84-.38 3.89-2.7 2.92-4.8-3.05-1.99 7.4-4.18 2.14-7.15-5.48-5.91 7.66-7.05 4.42-.33-.77 5.16 9.18-.95 6.87 5.01 2.35 2.86 8.8.65 8.63 4.67 3.42.24 4.6 3.11 7.8 3.33 3.33 1.5 9.36 2.69 10.49 6.44-3.3 2.61-10.95-5.4-11.31 1.84 1 10.69.74 21.7 4.65 31.88 1.85 6.16 6.33 11.01 10.38 15.81 3.88 4.7 9.12 8.01 14.48 10.8 4.69 2.21 9.75 3.68 14.87 4.6 2.07-1.59 5.74-7.48 8.97-5 .16 2.8-6.42 5.84-.31 5.54 3.59-1.08 6.08 2.77 9.04-.71 2.72 3.23 11.32-2.06 9.38 4.53-2.62 1.69-6.44.67-9.07 3-4.33-2.16-7.77 1.93-12.56 1.42-5.32.95-10.73 1.34-16.13 1.34-8.85-.7-17.89-.99-26.3-4.07-4.74-1.38-9.37-4.08-13.53-6.78zm7.47 3.24c4.63 2 9.16 4.11 14.23 4.75 8.05 1.12 16.37 2.84 24.45 1.27-3.66-1.65-7.44.64-11.08-1.18-4.37.94-9.06-.24-13.5-.82-5.05-2.25-10.5-3.8-15.23-6.72-5.91-2.16 3.06 2.77 4.65 3.17 3.69 2.1-4.06-1.08-5.16-1.95-3.09-1.74-3.49-1.37-.31.39.64.37 1.28.77 1.95 1.09zm-8.81-6.23c4.49 1.66-.02-3.16-2.07-2.88-.91-1.58-3.48-2.58-1.67-3.43-3.26 1.13-3.42-4.3-4.95-3.53-3.45-1.09-1.34-4.95-5.45-7.32-.37-2.5-4.08-4.66-5.26-8.43-.52-1.93-4.19-7.46-1.94-2.31 1.92 4.96 5.29 9.21 8.1 13.45 2.18 4.04 4.76 8.26 8.72 10.78 1.34 1.3 2.63 3.27 4.52 3.67zM30.17 83.45c.16-.68.82 1.46 0 0zm18.3 16.18c1-.44-1.43-.56 0 0zm2.44.89c-.25-1.23-1.11.69 0 0zm3.05 1.27c1.45-1.38-2.24-.87 0 0zm5.22 2.91c.89-1.3-2.82-.49 0 0zm-10.03-6.99c2.25-1.46-2.91-.02 0 0zm2.29 1.14c-.07-.77-.82.34 0 0zm11.43 7.13c1.84 1.16 10.73 2.54 5.16.48-.93.2-10.33-2.66-5.16-.48zM44.72 91.85c-.18-.77-2.85-.85 0 0zm5.32 3.1c1.39-.96-2.87-.74 0 0zm4.48 2.75c1.98-.75-3.23-.75 0 0zm-11.97-8.21c2.16 1.65 8.7.21 3.3-.99-2.45-1.31-7.99-2.2-4.22.79l.92.2zm15 9.16c.9-1.53-3.77-.88 0 0zm-4.56-3.63c5.27 1.49-4.43-3.34-1.3-.55l.7.32.6.23zm9.14 5.28c4.99.05-4.51-.68 0 0zm-21.5-13.7c-.19-.93-1.23.08 0 0zm29.94 18.44c.14-1.68-1.62 1.25 0 0zM49.15 91.82c-.3-.88-1.56-.04 0 0zm-8.04-5.8c2.86-.17-3.93-1.26 0 0zm-9.54-6.16c-.36-1.38-3.12-2.47 0 0zM56.6 95.74c-.52-.6-.25.13 0 0zm15.58 9.56c-.05-.91-.85.35 0 0zM55.22 94.32c.28-1.18-2.44-.36 0 0zm-11.6-7.36c2.13-.23-3.42-1.44 0 0zm19.63 12.2c3.32-1.32-3.24-.64 0 0zm-10.21-6.93c3.83.49-4.56-2.61-.84-.28l.84.28zm13.31 8.19c3.58-2.14 2.4 5.01 6.07.6 3.62-2.64-3.13 3.27 1.33.47 3.23-2.16 7.99 1.02 11 2.06 2.16-.11 4.27 1.87 6.49.67 4.27-1.15-8.36-1.71-5.05-3.75-3.91 1.14-6.8-1.36-8.72-3.86-4.39-1.01-9.46-3.25-11.65-7.14-.89-1.46 1.29.21-.77-2.18-2.64-2.35-3.96-5.02-5.73-7.88-2.12-1.13-2.37-4.46-2.58-.11.02-2.74-2.56-4.59-3.19-3.82-.01-2.64 2.76-1.32.82-3.27-.42-2.74-1.79-5.59-2.2-8.68-.64-1.49-.09-4.68-2.19-1.31-.76 3.57-.25-4.38.94-1.76 1.56-2.67-.56-2.36-.65-1.99 1.02-2.26.64-5.46-.27-4.24.54-2.39.86-8.8-.81-7.66 1.01-2.5 1.92-11.44-2.47-8.03-1.78.03-4.85.64-6.31 1.37 4.56 2.51-.46.91-2.32.51-.24 2.33-2.08 1.32-4.38 1.34 3.67.45-1.79 3.75-3.89 2.47-2.74 1.31 2.36 4.57.05 5.58.28 1.52-4.19-.55-3.84 2.96-2.65-1.12-.36 4.16.96 2.38 4.51 1.22 3.18 4.01 3.29 6.65-.74 1.54-3.63-3.62-.64-3.38-2.36-3.83-2.61-1.38-4.56.39-.45.13 4.99 2.53 1.57 3.72 3.01.47 3.1 3.1 3.71 4.76 1.81 1.88 1.44-2.08 3.6.18-1.37-2.02-7.25-5.68-2.52-4.51-.03-2.03-.86-3.67.6-3.63 1.44-2.6-1.51 6.42 1.73 3.11.9-.39 1.12-2.6 2.73.21 2.34 2.3.85 3.97-2.46 1.86.59 2.01 4.42 2.72 3.7 5.86.76 2.76 1.83 1.74 2.76 1.58.73 2.68 1.14.71 1.18-.57 3.34.72 2.56 2.69 3.6 4.07 2.3 1.04-3.29-7.04.66-2.43 4.16 3.75 1.56 5.32-2.17 4.72 2.36-.19 3.12 3.19 6.07 3.07 2.69 1.28 4.52 6.2-.12 4.15-1.61-1.45-7.31-3.24-2.65-.48 4.3 1.99 7.71 3.18 11.86 5.68 2.96 2.12 4.25 4.54 5.37 5.02-2.49 1.19-7.51-.95-3.78-1.61-2.33-.42-4.94-1.6-2.71 1.3 1.89 1.58 6.71 1.42 7.58 1.59-.73 1.61-1.99 1.74.03 1.86-2.25 1.22.72 1.41.93 2.1zm-4.6-13c-1.37-1.43-1.72-4.11-.24-1.78.75.3 2.43 4.38.24 1.78zm14.99 9.52c.85-.06.02.65 0 0zM59.59 83.91c-.06-2.17.49 1.67 0 0zM58.1 81.9c-1.73-3.32 2.17.95 0 0zM40.04 69.44c1.01-.27.5 1.73 0 0zm14.37 7.79c.62-2.33.73 1.96 0 0zm-10.15-7.06c-.71-1.29 1.5 1.21 0 0zm8.71 2.79c-1.63-3.65 1.16-2 .36.6l-.36-.6zM37.95 62.95c-.73-1.2-1.93-4.72-1.55-5.79.35 1.75 3.72 7.53 1.65 2.39-2.28-4.3 2.73 1.4 3.25 2.47.24 1.07-1.41-.29-.29 2.21-2.04-2.85-1.2 1.58-3.06-1.28zm-4.64-3.2c.19-2.79 1.06 1.91 0 0zm2.08.72c1-2.11 1.69 2.93 0 0zm-5.02-3.89c-1.73-1.72-2.98-3.3.08-1.07 1.18.05-2.62-3.6.28-1.16 3.06.56 1.51 5.01-.36 2.23zm2.64-.07c1-.99.53.98 0 0zm1.62.52c-1.52-2.85 1.85 1.2 0 0zm-3.22-3.08c-5.02-4.47 6.31 2.34.82.83l-.82-.83zm14.39 8.36c-2.18-1.3-.58-9.18.16-3.79 2.11-.68-.12 2.78 1.46 2.75-.24 2.18-.95 2.97-1.62 1.04zm5.33 3.15c.21-2.38.45 1.62 0 0zm-.93-.92c.24-1.01.03 1.2 0 0zM32.39 52.48c-3.23-4.45 9.38 4.51 2.07 1.13-.77-.21-1.69-.28-2.07-1.13zm10.26 5.43c-.31-3.75.68.62 0 0zm7.78 5c.6-2.14.05 1.41 0 0zM32.89 50.78c1.92-.41 7.95 3.37 2.41 1.08-.62-.69-1.93-.38-2.41-1.08zm16.47 8.21c.2-3.84 1.15-2.29.01.55l-.01-.55zm-15.05-9.55c.78-1.15-2.08-5.18.41-1.45 1.08.85 3.11 1.43 1.31 1.79 2.84 2.5-.68.68-1.72-.34zm14.24 8.35c.54-4.37.47 2.56 0 0zM32.68 45.41c.6-.26.32.79 0 0zm3.71 2.21c.96-2.01 1.77 2.23 0 0zm10.47 5.82c0-.77.2 1.12 0 0zm-.6-1.34c-1.45-3.59 1.35 1.9 0 0zm-.89-2.35c-.25-1.48.83 1.86 0 0zm1.45-2.36c-1-1.76 1.26-7.75 1.51-4.03-1.05 2.89-.3 4.51.43.63 1.36-3.06-.29 6.02-1.94 3.4zm1.49-8.91c.44-.53.1.65 0 0zM45.82 87.6c-.59-.52.07.33 0 0zm5.13 2.6c2.86.74 2.84-.44.26-.79-1.39-1.29-5.77-2.66-1.85-.16.27.65 1.09.63 1.59.95zm-10.14-6.74c1.57 1.18 5.93 3.32 2.24.45 1.24-1.44-2.38-2.21-1.18-3.18-3.06-1.87-2.41-1.7-.27-1.64-3.67-1.64.53-1.52.33-2.36-1.42-.28-7.03-2.5-3.73.18-3.36-1.71-.8.64-1.82.39-3.44-.94 3.06 2.62-.54 1.73 1.97 1.56 5.3 4 .83 1.65-.57.85 3.21 2.14 4.14 2.78zm5.37 3.09c6.53 2.1-3.2-2.58 0 0zm27.5 16.65c.08-1.3-.9 1.11 0 0zm2.82 1.19c1.51-1.46.06 2.33 2.5-.36.03-1.92-.07-3.06-2.8-.72-.75.42-1.09 2.19.3 1.08zM31.65 76.22c-.47-1.82-3.25-1.81 0 0zm3.01 1.98c-1.12-1.86-4-1.68 0 0zm17.17 10.35c1.68 1.49 7.7 1.09 2.03.18-.83-1.24-5.32-.94-2.03-.18zm23.6 14.57c2.57-2.16-2.5.97 0 0zm5.36 3.69c.02-.69-1.11.3 0 0zm.01-.97c2.86-3.03-2.77.18 0 0zM24.22 70.01c-2.43-3.47-1.51-5.03-3.86-7.87-.45-2.17-4.03-7.09-1.85-1.88 1.99 3.05 2.58 7.77 5.71 9.75zm55.68 34.87c5.26-3.4-2.15-1.48 0 0zm4.01 1.57c2.64-2.26-1.66-.47 0 0zM30.75 72.38c.76-1.12-1.94-.14 0 0zm52.33 32.99c2.55-1.64-.59-1.39-.46.15l.46-.15zM48.5 83.58c-.09-1.11-1.35.09 0 0zm2.14 1.23c-.69-1.38-1.05.21 0 0zm36.53 21.67c3.27-2.36-1.98-.45-.68.45l.68-.45zm-1.26-.6c2.67-2.23-2.8.99 0 0zm6.39 4.25c1.79-1.19-2.17-.38 0 0zM32.39 71.57c2.39.54 9.56 5.89 5.33.37-2.17-.64-.87-5.94-3.08-5 1.48 2.48 1.22 3.53-1.9 1.97-3.91-1.91-2.2.94-1.43 1.73-1.04.25 1.39.91 1.08.93zm-10.9-8.61c.43-1.77-3.95-9.75-2.07-4 .68 1.21.61 3.49 2.07 4zM41.5 75.3c-1.23-1.03-.06-.15 0 0zm3.03.71c0-1.88-3.35-.77 0 0zm26.3 16.57c-.5-1.28-1.98-.02 0 0zm1.26.93c-.18-.72-.72.14 0 0zm10.43 6.56c1-.74-1.25-.09 0 0zM26.93 64.35c2.87-1.11-3.07-.79 0 0zm41.59 26.2c-.04-1.86-1.83.46 0 0zM25.8 61.71c1.84-.62-1.71-.41 0 0zm5.34 2.59c-.03-.61-.56.23 0 0zm65.22 39.99c2.37-.48 7.77 1.21 8.64-.63-2.88-.07-9.95-2.03-10.28.46l.63.1 1.01.07zM32.84 64.73c.05-1.88-1.46-.07 0 0zm-14.05-9.75c-.64-3.58-2.43-.54 0 0zm3.35.84c.04-1.15-3.07-1.03 0 0zm1.91.94c-.55-.44-.43.57 0 0zm12.06 7.73c.57-.52-1.35-.38 0 0zm-13.33-9.85c-.33-2.71-3.88-.4 0 0zm-6.87-4.46c-.1-1.25-.67.47 0 0zm1.02-.77c-.17-1.48-.88.19 0 0zm5.65 3.37c2.39-.94-4.35-1.94-.49-.18l.49.18zm75.59 46.69c1.53-1.4-1.94-.43 0 0zm9.13 4.74c.61-1.81-1.54.23 0 0zM23.15 49.82c.26-1.75-1.89.35 0 0zm-8.03-5.38c-.43-2.47-.37-6.82 3.76-5.35-5.51 1.1 3.82 6.85 2.64 2.31 2.32.11 4.53-1.37 3.32.88 4.57-.5 7.73-4.46 12.14-3.91 3.44-.46 7.19-.8 10.89-2.18 3.04-.22 5.97-3.5 4.31-5.44-4.15-.35-8.5.17-13.08 1.08-5.08 1.06-9.7 3.06-14.83 3.93-5 .67 1 1.85-.43 2.11-2.61.9 3.11 1.52-.34 2.47-2.13-.41-4.35-1.14-3.44-3.38-4.79.62-9 2.61-5.21 7.48h.27zm11.54-5.88c1.12-4.14 6.01 3.4 1.84.55-.5-.38-1.32-.68-1.84-.55zm.22-2.01c1.62-1.2.86.68 0 0zm2.06.04c.15-1.9 4.71 1.01.75.68l-.75-.68zm2.81-1.14c1.03-1.2.3 1.07 0 0zm.72-.48c1.71-2.06 9.69-1.31 3.85-.2-1.56-1.18-2.76.7-3.85.2zm10.42-1.6c-.26-5.62 5.18 1.99 0 0zm2.96-.02c1.08-2.83 4.2-1.14.5-.57.08.3-.11 1.46-.5.57zM21.99 48.37c3.23-1.98-3.43-1.72 0 0zm2.39.66c1.13-1.2-2.46-.49 0 0zm-7.04-4.99c1.85-1.42-2.18-.54 0 0zm95.35 59.65c.05-1.65-1.41.74 0 0zM103 97.08c.28-1.9-1.24.16 0 0zm12.36 7.25c2.58.01 7.82-.8 2.2-.8-.88.13-5.13.11-2.2.8zM26.48 47.87c2.09-.14 3.27-2.3-.41-2.18-5.69-.59 5.02 1.95-.73 1.22-.77.51 1.09 1.1 1.14.96zm1.84.93c-.22-1.34-.65.71 0 0zm2.18-5.82c.9-1.12-1.26-.3 0 0zm-6.95-11.6c3.73-1.27 8.82-2.69 10.58.62-1.79-2.15-.72-4.28.97-1.12 2.39 3.19 3.59-1.45 2.03-2.52 1.77 2.2 3.79 3.24 1.19.14 2.83-3.4-5.66.45-7.59.41-.92.41-9.58 2.2-7.18 2.47zm2.19-4.18c2.13-1.6 7.35.96 4-1.59-.33-.3-7.35 1.93-4 1.59zm7.75.32c2.49.06-1.07-3.34 1.89-1.8-.49-1.59-3.45-1.89-4.9-2.52-.82 1.45 1.66 4.34 3.01 4.32zm-6.39-7.04c.86-1.16-1.51.6 0 0zm3.16.76c4.01-.53-1.02-1.72-.81-.04l.81.04zm-5.91-4.62c-2.82-3.69 5.31.62 2.44-3.24-2.41-1.92-4.73 2.16-2.44 3.24zm36.21 19.5c1.29-2.29-5.34-3.09-.87-.81.42.14.32.97.87.81z"
     id="path2" />
  <path
     style="fill:#ffffff;stroke-width:0.272817"
     d="m 87.028516,103.91051 c -2.314697,-0.6575 -3.361696,-1.01952 -6.5476,-2.26397 -2.930698,-1.14477 -4.89477,-1.27422 -6.5476,-0.43156 -1.330022,0.67809 -1.433889,0.68006 -0.832737,0.0158 0.263729,-0.29142 0.431014,-0.67532 0.371748,-0.85312 -0.0637,-0.19109 -0.63969,0.13711 -1.408673,0.80267 -0.715502,0.61926 -1.467587,1.12593 -1.671296,1.12593 -0.20371,0 -0.636902,-0.43124 -0.96265,-0.95831 -0.716894,-1.15996 -1.46397,-1.599057 -2.344573,-1.37804 -0.616457,0.15471 -2.291177,-0.463797 -2.291177,-0.846187 0,-0.09214 0.214843,-0.330619 0.477429,-0.529949 0.440552,-0.334427 0.428298,-0.363092 -0.158659,-0.371099 l -0.636089,-0.0087 0.56834,-0.919591 0.568337,-0.919592 -2.202269,-0.192106 c -2.86775,-0.250157 -4.797001,-0.839214 -5.605403,-1.711494 -0.98923,-1.067398 -0.862351,-1.503675 0.37251,-1.280855 1.314542,0.237195 1.578923,0.398815 1.120392,0.684906 -0.650673,0.405979 0.126614,1.174544 1.566644,1.549073 1.159231,0.301492 2.853783,0.252243 3.422889,-0.09949 0.09918,-0.06129 -0.954623,-1.247132 -2.341776,-2.635196 -2.796712,-2.798548 -4.327721,-3.723224 -11.146257,-6.731953 -3.862989,-1.704572 -5.227522,-2.442478 -4.978015,-2.691986 0.07825,-0.07825 1.306868,0.443488 2.730268,1.159408 2.755059,1.385702 3.762913,1.487078 4.103876,0.412794 0.236279,-0.744446 -0.812939,-2.858025 -1.731078,-3.487145 C 50.52534,81.076829 49.668872,80.700456 49.021835,80.51436 48.374798,80.328266 47.348701,79.727265 46.741619,79.178802 L 45.637834,78.1816 46.417558,77.931561 c 1.898575,-0.608826 2.231943,-1.877835 0.950004,-3.616319 -0.997129,-1.352243 -2.705819,-2.984461 -2.910263,-2.780018 -0.08602,0.08602 0.164833,0.919613 0.557451,1.852431 0.88977,2.114001 0.677676,2.532292 -0.236206,0.465842 -0.65147,-1.47309 -1.324551,-2.13347 -2.545243,-2.497208 -0.522113,-0.155579 -0.623154,-0.04926 -0.787938,0.829117 -0.186827,0.995877 -0.193055,1.000051 -0.535927,0.35939 -0.283382,-0.529505 -0.52703,-0.632676 -1.330618,-0.563443 -0.887994,0.07651 -1.020752,-0.0033 -1.364332,-0.820466 -0.209338,-0.497871 -0.321107,-1.001505 -0.248374,-1.11919 0.374367,-0.60574 -0.358039,-2.018548 -1.71893,-3.315813 l -1.479695,-1.410514 1.440606,0.01208 c 1.248505,0.01048 1.451265,-0.06238 1.520533,-0.546396 0.04396,-0.307171 -0.249415,-1.043776 -0.651943,-1.6369 -0.466521,-0.687405 -0.742782,-1.474049 -0.761968,-2.169663 -0.02137,-0.77476 -0.148789,-1.091266 -0.439324,-1.091266 -0.248922,0 -0.400739,0.240454 -0.387563,0.613837 0.01191,0.337611 -0.09597,0.613838 -0.239751,0.613838 -0.143777,0 -0.741643,0.433858 -1.32859,0.96413 -0.586947,0.530272 -1.200386,0.881803 -1.363197,0.78118 -0.197207,-0.121881 -0.234953,-0.856851 -0.113079,-2.201787 l 0.182943,-2.018836 -0.626119,0.351002 c -0.948175,0.531547 -1.034782,0.773167 -0.84919,2.369112 l 0.171233,1.472475 -0.730317,-0.183297 c -0.550227,-0.138099 -0.77459,-0.06793 -0.909853,0.284562 -0.131204,0.341914 0.262466,0.876169 1.462386,1.984622 l 1.641921,1.516762 -0.781986,0.640909 c -0.997927,0.817891 -1.378594,0.536442 -2.016208,-1.4907 -0.33523,-1.065782 -0.772359,-1.756133 -1.513883,-2.39085 -0.784713,-0.671685 -0.965093,-0.969862 -0.729333,-1.205622 0.492263,-0.492262 -0.138383,-1.559728 -1.424165,-2.410618 l -1.119232,-0.740673 1.258225,-1.248332 1.258224,-1.248331 0.843835,0.934459 c 0.828122,0.917058 0.832951,0.938485 0.259334,1.150679 -1.209482,0.447417 -0.262632,3.78042 1.073954,3.78042 0.552746,0 0.571546,-0.105795 0.481439,-2.709244 -0.08495,-2.454493 -0.05327,-2.672544 0.336938,-2.318941 0.959927,0.869877 2.03357,0.140139 1.830407,-1.244099 -0.109713,-0.747526 -0.05152,-0.820949 0.650711,-0.820949 0.996105,0 0.974625,-0.325959 -0.07996,-1.21333 -1.121646,-0.943803 -2.355232,-1.568222 -2.890481,-1.463109 -0.348452,0.06843 -0.287926,0.254842 0.315383,0.971335 0.786332,0.933851 0.681533,1.203135 -0.168758,0.433632 -0.695246,-0.629189 -0.908817,-0.285191 -0.351252,0.56576 0.535111,0.816683 0.382459,0.885785 -0.573324,0.259532 -0.823596,-0.539641 -1.093665,-0.356789 -0.662617,0.448631 0.294556,0.550383 0.270733,0.578256 -0.318918,0.373138 -0.350489,-0.121923 -1.048298,-0.227103 -1.550688,-0.233735 -0.626118,-0.0083 -1.080703,-0.218624 -1.44521,-0.668772 -0.632029,-0.780523 -0.580379,-1.826765 0.08477,-1.717173 0.311147,0.05127 0.511552,-0.185849 0.636012,-0.752515 0.209301,-0.95294 0.626151,-1.222402 2.282812,-1.475665 1.119146,-0.171089 2.188524,-0.9773 2.209963,-1.666104 0.0047,-0.150049 -0.375441,-1.001195 -0.844691,-1.891436 -1.08376,-2.056063 -0.899489,-2.449113 1.163961,-2.482731 1.80689,-0.02944 3.872738,-1.039915 4.004362,-1.958671 0.07139,-0.498333 0.289386,-0.608941 1.336137,-0.677942 1.13735,-0.07497 1.526656,-0.333243 1.881119,-1.247957 0.01582,-0.04083 0.813811,0.110814 1.773308,0.336988 0.959497,0.226174 1.898,0.41304 2.085561,0.415258 0.618823,0.0073 0.355249,-0.540968 -0.514248,-1.06974 L 40.712453,39.874239 42.08472,39.46672 c 0.754747,-0.224136 2.091066,-0.494987 2.969598,-0.601892 0.878533,-0.106904 1.928846,-0.362883 2.334029,-0.568842 0.405184,-0.205958 0.923793,-0.37447 1.152465,-0.37447 0.769605,0 1.248229,1.479333 1.248229,3.858029 0,2.013722 -0.04065,2.192987 -0.38974,1.718652 -0.435132,-0.59125 -0.394092,-0.647546 -1.105584,1.516553 l -0.403623,1.227675 0.181618,-1.091267 c 0.495293,-2.976005 -0.06254,-4.084136 -1.007595,-2.001572 -1.294565,2.852766 -0.147529,6.462429 1.298147,4.085204 0.385188,-0.633391 0.587008,-0.739479 1.068163,-0.561488 0.446447,0.165152 0.640413,0.534006 0.783869,1.490641 0.186536,1.243908 -0.02633,4.934856 -0.330282,5.726949 -0.09812,0.255692 0.016,0.399624 0.316846,0.399624 0.408567,0 0.453395,0.223486 0.342017,1.705104 -0.0705,0.937808 -0.217265,1.91099 -0.326149,2.162628 -0.155486,0.359341 -0.08286,0.427422 0.338424,0.317254 0.656138,-0.171585 0.895648,0.1625 0.687401,0.958836 -0.112568,0.430463 -0.298035,0.555888 -0.654633,0.442708 -0.4002,-0.127018 -0.556894,0.06241 -0.800745,0.968002 -0.166749,0.619257 -0.26399,1.454176 -0.216092,1.855374 0.08574,0.71817 0.09482,0.713822 0.586879,-0.281062 0.714299,-1.444223 1.209984,-1.800998 1.377518,-0.991483 0.07261,0.350853 0.272304,1.313135 0.443763,2.138406 0.49707,2.392485 2.170036,8.26076 2.553845,8.95814 0.314583,0.571591 0.270976,0.716967 -0.423362,1.411302 -0.950392,0.950392 -1.010273,1.634491 -0.143068,1.634491 0.860352,0 2.056413,1.318086 2.507008,2.762787 0.346101,1.109665 0.373382,1.13426 0.390357,0.351871 0.01004,-0.462654 0.08998,-0.91291 0.177642,-1.000574 0.262586,-0.262589 2.605178,2.566468 4.149702,5.011434 0.794486,1.257661 2.177244,3.076398 3.072792,4.041637 1.063084,1.145814 1.518645,1.822735 1.31245,1.95017 -0.464214,0.2869 0.547502,1.791151 2.353365,3.499062 1.612887,1.5254 5.432899,3.5297 7.902577,4.146358 1.042673,0.260346 1.671717,0.663817 2.738501,1.756484 1.826974,1.871301 3.35968,2.636305 5.371678,2.681105 1.046495,0.0233 1.581619,0.14836 1.583084,0.36994 0.0036,0.5433 1.08045,1.06023 3.548827,1.70355 1.275418,0.33242 2.420317,0.70045 2.544223,0.81785 0.262127,0.24838 -1.26674,0.83525 -2.107504,0.80899 -0.31522,-0.01 -1.4325,-0.26201 -2.482844,-0.56037 z m -9.8214,-6.787778 c 0.09274,-0.150049 -0.03003,-0.272816 -0.272817,-0.272816 -0.242785,0 -0.365552,0.122767 -0.272816,0.272816 0.09273,0.15005 0.215503,0.272817 0.272816,0.272817 0.05731,0 0.180081,-0.122767 0.272817,-0.272817 z M 62.884241,87.969826 c 0,-0.95832 -1.94061,-3.729521 -2.335305,-3.334826 -0.334468,0.334468 0.185354,1.763091 1.002023,2.753852 0.882502,1.070628 1.333282,1.267056 1.333282,0.580974 z m -3.115348,-4.693229 c -0.314759,-0.31476 -0.47624,0.178198 -0.261593,0.79858 l 0.219495,0.634397 0.100276,-0.637261 c 0.05515,-0.350496 0.02897,-0.708568 -0.05818,-0.795716 z m -0.976902,-1.548519 c 0,-0.436913 -0.721627,-1.247162 -1.110754,-1.247162 -0.316579,0 -0.315578,0.07357 0.01274,0.937098 0.281462,0.740304 1.098019,0.970889 1.098019,0.310064 z m -3.819433,-4.65737 c 0,-0.375123 -0.10845,-0.682042 -0.240998,-0.682042 -0.285724,0 -0.585364,0.992417 -0.365902,1.211879 0.342661,0.34266 0.6069,0.111972 0.6069,-0.529837 z M 53.538385,72.4091 c -0.16166,-1.434238 -0.573984,-2.033087 -1.063076,-1.543995 -0.237746,0.237746 -0.198865,0.618075 0.15897,1.555055 0.62059,1.624992 1.087867,1.619276 0.904106,-0.01105 z m -8.660044,-1.988997 c 0,-0.131675 -0.184151,-0.392242 -0.409225,-0.579037 -0.331883,-0.275438 -0.409225,-0.264564 -0.409225,0.05753 0,0.218439 0.08185,0.479006 0.181878,0.579037 0.25909,0.259092 0.636572,0.224973 0.636572,-0.05753 z m -4.305956,-0.901869 c -0.177558,-0.17756 -0.40143,-0.244237 -0.497492,-0.148175 -0.09606,0.09606 -0.09408,0.384633 0.0044,0.641269 0.136471,0.355639 0.254788,0.390878 0.497492,0.148175 0.242704,-0.242706 0.241658,-0.395216 -0.0044,-0.641269 z m 10.849379,-4.246847 c -0.003,-0.546012 -0.07044,-0.64558 -0.247576,-0.365761 -0.133869,0.211467 -0.180238,0.549077 -0.103042,0.750247 0.221379,0.576903 0.355154,0.430207 0.350618,-0.384486 z M 50.248223,64.33358 c -0.08709,-0.217635 -0.151736,-0.152989 -0.164827,0.164826 -0.01185,0.287595 0.05263,0.448727 0.143289,0.358072 0.09065,-0.09065 0.100347,-0.325959 0.02154,-0.522898 z m -9.311969,-0.673215 c -0.112605,-0.448653 -0.05789,-0.800952 0.143758,-0.925575 0.573807,-0.354633 0.04533,-1.457458 -1.535531,-3.204371 -1.678501,-1.854803 -2.416824,-2.177414 -2.158229,-0.94304 l 0.157172,0.750245 -0.415124,-0.682041 c -0.228318,-0.375123 -0.419474,-0.896885 -0.424791,-1.159471 -0.0053,-0.262586 -0.149122,-0.477429 -0.319567,-0.477429 -0.417738,0 -0.135644,1.977544 0.567457,3.977991 0.929885,2.645689 1.879479,3.654849 2.56148,2.722156 0.313012,-0.428069 0.374452,-0.420662 0.847626,0.10219 0.673974,0.744733 0.794543,0.71109 0.575749,-0.160655 z m 6.059713,-0.435103 c 0.432793,-0.537246 0.700871,-2.114329 0.359401,-2.114329 -0.171514,0 -0.294493,-0.569635 -0.294493,-1.364084 0,-1.155412 -0.07882,-1.364083 -0.515272,-1.364083 -0.372883,0 -0.564772,-0.263862 -0.694404,-0.954858 -0.353368,-1.883615 -1.245674,-0.753074 -1.245674,1.578254 0,1.490686 0.427585,3.196037 0.801347,3.196037 0.111285,0 0.342178,0.306919 0.513096,0.682042 0.34401,0.755021 0.661444,0.855627 1.075999,0.341021 z m 3.884341,-0.629938 c 0,-0.216219 -0.122768,-0.393125 -0.272817,-0.393125 -0.150049,0 -0.272816,0.252781 -0.272816,0.561735 0,0.308953 0.122767,0.485859 0.272816,0.393124 0.150049,-0.09274 0.272817,-0.345516 0.272817,-0.561734 z M 33.965675,59.626542 c 0,-0.366268 -0.123635,-0.742351 -0.274744,-0.835742 -0.345307,-0.213411 -0.654712,0.546083 -0.445049,1.092458 0.247699,0.645492 0.719793,0.477119 0.719793,-0.256716 z m 15.999372,-1.906087 c 0.10574,-0.771465 0.06575,-1.247406 -0.104821,-1.247406 -0.313585,0 -0.620844,1.291426 -0.608522,2.557657 0.01177,1.209711 0.487783,0.335384 0.713343,-1.310251 z m -0.998633,-0.49716 c -0.0031,-0.849129 -0.07496,-1.049938 -0.268639,-0.750246 -0.348118,0.538674 -0.348118,1.909717 0,1.909717 0.150049,0 0.270936,-0.521762 0.268639,-1.159471 z m -5.997789,0.08431 c 0,-0.441292 -0.122768,-0.878223 -0.272817,-0.970959 -0.162358,-0.100343 -0.272817,0.224514 -0.272817,0.802349 0,0.534028 0.122768,0.970959 0.272817,0.970959 0.150049,0 0.272817,-0.361057 0.272817,-0.802349 z m -7.647543,-0.220713 c -0.01555,-0.366604 -0.725769,-1.159471 -1.038614,-1.159471 -0.223406,0 -0.22189,0.182617 0.0057,0.682042 0.281331,0.617454 1.054032,0.974597 1.03295,0.477429 z m -1.628224,-0.629938 c 0,-0.141194 -0.184151,-0.256716 -0.409225,-0.256716 -0.421886,0 -0.542006,0.321913 -0.234764,0.629155 0.217962,0.217962 0.643989,-0.02842 0.643989,-0.372439 z m 3.2738,-2.148168 c 0,-0.60082 -4.005584,-3.292065 -4.899831,-3.292065 -0.156027,0 -0.280956,0.214843 -0.277619,0.477429 0.01171,0.921554 1.021929,1.803347 2.760917,2.409932 1.979259,0.690395 2.416533,0.763626 2.416533,0.404704 z m 0.56832,-2.037054 c -0.505519,-0.609113 -3.169022,-1.579224 -4.019731,-1.464081 -0.696293,0.09424 -0.720417,0.129003 -0.231614,0.333747 0.300098,0.125702 1.036703,0.440106 1.6369,0.698676 1.56956,0.67618 1.850045,0.767955 2.420551,0.792009 0.407577,0.01718 0.446769,-0.05566 0.193894,-0.360351 z m 9.004724,-0.508631 c -0.356079,-0.936561 -0.973712,-1.323074 -0.702341,-0.439524 0.219878,0.715893 0.696892,1.401971 0.860798,1.238065 0.05784,-0.05784 -0.01347,-0.417184 -0.158457,-0.798541 z M 36.815963,50.18248 c -0.276687,-0.305736 -0.346226,-0.529847 -0.164405,-0.529847 0.637518,0 0.286582,-0.526749 -0.732535,-1.099525 -0.5762,-0.323842 -1.263383,-0.954035 -1.527073,-1.400428 -0.646852,-1.095033 -0.78014,-0.84429 -0.403009,0.758148 0.443087,1.882681 0.562652,2.056206 1.906455,2.766826 1.290738,0.682558 1.758632,0.430878 0.920567,-0.495174 z m 8.768536,-0.733078 c -0.293412,-0.293412 -0.449179,0.117516 -0.243211,0.641612 0.193211,0.491633 0.207803,0.492485 0.303355,0.01769 0.05521,-0.27433 0.02814,-0.571018 -0.06014,-0.659307 z m -8.072208,-1.690385 c 0,-0.698131 -0.470018,-0.964116 -0.970173,-0.549024 -0.304202,0.252465 -0.326119,0.422291 -0.09105,0.705529 0.452488,0.545215 1.061225,0.455441 1.061225,-0.156505 z m -4.365066,-2.198634 c 0,-0.150049 -0.122768,-0.272817 -0.272817,-0.272817 -0.150049,0 -0.272817,0.122768 -0.272817,0.272817 0,0.150049 0.122768,0.272817 0.272817,0.272817 0.150049,0 0.272817,-0.122768 0.272817,-0.272817 z m 15.55055,-7.093233 c 0,-0.15005 -0.122768,-0.272817 -0.272817,-0.272817 -0.150049,0 -0.272817,0.122767 -0.272817,0.272817 0,0.150049 0.122768,0.272816 0.272817,0.272816 0.150049,0 0.272817,-0.122767 0.272817,-0.272816 z"
     id="path183" />
  <path
     style="fill:#ffffff;stroke-width:0.272817"
     d="m 14.112586,42.911289 c -0.334489,-0.631731 -0.608161,-1.433095 -0.608161,-1.780809 0,-0.661305 0.632281,-1.74492 1.351563,-2.316331 0.53092,-0.421773 2.866813,-1.306514 4.036566,-1.528887 0.837274,-0.159167 0.886654,-0.123945 0.886654,0.632447 0,0.973053 0.836601,1.81695 2.167878,2.186781 2.344259,0.651241 3.663462,-0.152911 2.018742,-1.230572 -0.633746,-0.415247 -0.667782,-0.505941 -0.272816,-0.726975 0.659057,-0.368827 0.556135,-0.661424 -0.367187,-1.043877 -0.450148,-0.186457 -0.81845,-0.444547 -0.81845,-0.573533 0,-0.253728 0.195498,-0.309581 3.2738,-0.935304 1.125369,-0.228752 3.028265,-0.712557 4.228658,-1.075122 6.147711,-1.856846 11.301932,-3.145191 12.582823,-3.145191 0.292268,0 0.341973,0.252921 0.210852,1.072914 -0.168958,1.056607 -0.156837,1.075677 0.797522,1.254716 0.532999,0.09999 1.099825,0.101005 1.259608,0.0023 0.46521,-0.287515 0.335652,-1.466301 -0.222501,-2.024453 -0.502149,-0.502151 -0.48689,-0.516603 0.720119,-0.682042 0.678227,-0.09297 2.502724,-0.169033 4.05444,-0.169033 2.787657,0 2.823358,0.0082 2.993811,0.687337 0.43152,1.719317 -1.358742,3.634644 -4.180615,4.472665 -4.267251,1.26726 -9.305719,2.204208 -11.871276,2.207569 -1.68235,0.0022 -2.970503,0.415127 -6.344783,2.033842 -1.650541,0.791801 -3.399978,1.526889 -3.887637,1.633531 -0.791858,0.173163 -0.886655,0.129274 -0.886655,-0.4105 0,-0.562062 -0.08865,-0.592241 -1.265752,-0.430901 -0.696164,0.09542 -1.555536,0.17349 -1.909716,0.17349 -0.528347,0 -0.643965,0.141706 -0.643965,0.789262 0,0.462497 -0.175738,0.856699 -0.424474,0.952148 -0.574401,0.220418 -2.144802,-0.466451 -2.983123,-1.304772 -0.939628,-0.939628 -0.888593,-1.741311 0.13834,-2.173103 1.0415,-0.437918 0.773973,-0.718885 -0.684498,-0.718885 -1.727204,0 -2.38064,0.846597 -2.582296,3.345648 l -0.159311,1.974277 z m 16.033655,-3.507216 c 0,-0.726689 -0.526435,-1.458617 -1.358622,-1.888958 -1.000985,-0.517629 -1.227132,-0.515487 -1.759282,0.01666 -0.57043,0.570429 -0.544758,1.207838 0.04872,1.209624 0.262586,7.91e-4 0.845732,0.237351 1.295879,0.525691 1.008269,0.645842 1.773308,0.704937 1.773308,0.136979 z m 1.227675,-2.570147 c 0,-0.536684 -1.366116,-1.174361 -2.050515,-0.957141 -0.616449,0.195653 -0.699803,0.685778 -0.201391,1.18419 0.473247,0.473247 2.251906,0.293913 2.251906,-0.227049 z m -3.4696,-0.50716 c 0.07818,-0.234794 -0.053,-0.333108 -0.36401,-0.272817 -0.267433,0.05184 -0.541246,0.259443 -0.608473,0.461335 -0.07818,0.234793 0.05299,0.333107 0.364011,0.272816 0.267433,-0.05184 0.541245,-0.259443 0.608472,-0.461334 z m 4.424459,-0.829635 c 0,-0.325216 1.416961,-0.613956 3.410208,-0.694912 1.955034,-0.0794 2.934493,-0.357743 2.785208,-0.791491 -0.07075,-0.205553 -0.83394,-0.313634 -2.159923,-0.305883 -1.630848,0.0095 -2.319162,0.150235 -3.363101,0.687465 -1.340825,0.690013 -1.879326,1.346673 -1.104352,1.346673 0.237578,0 0.43196,-0.108833 0.43196,-0.241852 z m 14.186466,-2.331905 c 0,-0.197462 0.368303,-0.432683 0.81845,-0.522712 0.847923,-0.169585 1.172574,-0.995781 0.39129,-0.995781 -1.010976,0 -2.276011,1.288019 -1.885548,1.919805 0.21366,0.345705 0.675808,0.07127 0.675808,-0.401312 z"
     id="path185" />
  <path
     style="fill:#ffffff;stroke-width:0.272817"
     d="m 14.112586,42.911289 c -0.334489,-0.631731 -0.608161,-1.433095 -0.608161,-1.780809 0,-0.661305 0.632281,-1.74492 1.351563,-2.316331 0.53092,-0.421773 2.866813,-1.306514 4.036566,-1.528887 0.834453,-0.158631 0.886654,-0.122198 0.886654,0.618823 0,1.017656 1.23822,2.084648 2.707194,2.33283 2.045965,0.345663 2.894318,-0.435925 1.479426,-1.362997 -0.633746,-0.415247 -0.667782,-0.505941 -0.272816,-0.726975 0.659057,-0.368827 0.556135,-0.661424 -0.367187,-1.043877 -1.486307,-0.615648 -1.277559,-0.750522 2.318941,-1.49829 1.200394,-0.24958 4.209331,-1.054788 6.686528,-1.789352 4.057087,-1.203048 9.262185,-2.441508 10.261362,-2.441508 0.292268,0 0.341973,0.252921 0.210852,1.072914 -0.168958,1.056607 -0.156837,1.075677 0.797522,1.254716 0.532999,0.09999 1.099825,0.101005 1.259608,0.0023 0.46521,-0.287515 0.335652,-1.466301 -0.222501,-2.024453 -0.502149,-0.502151 -0.48689,-0.516603 0.720119,-0.682042 0.678227,-0.09297 2.496791,-0.169033 4.041252,-0.169033 2.601113,0 2.821342,0.04167 2.987542,0.565323 0.377417,1.18914 -0.760695,3.13373 -2.289486,3.911837 -2.135625,1.086968 -8.447806,2.445695 -13.332156,2.869811 -2.608313,0.226485 -3.025859,0.350972 -6.275396,1.870957 -1.914639,0.89558 -3.880157,1.714409 -4.367816,1.819619 -0.791075,0.170669 -0.886655,0.126137 -0.886655,-0.413103 0,-0.562062 -0.08865,-0.592241 -1.265752,-0.430901 -0.696164,0.09542 -1.555536,0.17349 -1.909716,0.17349 -0.528347,0 -0.643965,0.141706 -0.643965,0.789262 0,0.462497 -0.175738,0.856699 -0.424474,0.952148 -0.574401,0.220418 -2.144802,-0.466451 -2.983123,-1.304772 -0.939628,-0.939628 -0.888593,-1.741311 0.13834,-2.173103 1.0415,-0.437918 0.773973,-0.718885 -0.684498,-0.718885 -1.727204,0 -2.38064,0.846597 -2.582296,3.345648 l -0.159311,1.974277 z m 16.033655,-3.564986 c 0,-0.737129 -0.701602,-1.583007 -1.632997,-1.968803 -0.727015,-0.30114 -0.906657,-0.282706 -1.374948,0.141092 -0.666915,0.60355 -0.697834,1.220896 -0.06124,1.222811 0.262586,7.91e-4 0.845732,0.23735 1.295879,0.52569 1.05176,0.673701 1.773308,0.705931 1.773308,0.07921 z m 1.227675,-2.512377 c 0,-0.536684 -1.366116,-1.174361 -2.050515,-0.957141 -0.616449,0.195653 -0.699803,0.685778 -0.201391,1.18419 0.473247,0.473247 2.251906,0.293913 2.251906,-0.227049 z m -3.4696,-0.50716 c 0.07818,-0.234794 -0.053,-0.333108 -0.36401,-0.272817 -0.267433,0.05184 -0.541246,0.259443 -0.608473,0.461335 -0.07818,0.234793 0.05299,0.333107 0.364011,0.272816 0.267433,-0.05184 0.541245,-0.259443 0.608472,-0.461334 z m 4.424459,-0.809024 c 0,-0.353426 2.463149,-0.849678 4.001918,-0.806269 1.499479,0.0423 2.624325,-0.491071 1.944758,-0.922151 -0.957441,-0.607349 -4.369146,-0.06789 -5.742064,0.907933 -0.753778,0.53576 -0.985666,1.041728 -0.477429,1.041728 0.150049,0 0.272817,-0.09956 0.272817,-0.221241 z m 14.186466,-2.352516 c 0,-0.197462 0.368303,-0.432683 0.81845,-0.522712 0.847923,-0.169585 1.172574,-0.995781 0.39129,-0.995781 -1.010976,0 -2.276011,1.288019 -1.885548,1.919805 0.21366,0.345705 0.675808,0.07127 0.675808,-0.401312 z"
     id="path187" />
  <path
     style="fill:#ffffff;stroke-width:0.272817"
     d="M 36.072063,31.620437 C 35.80511,31.465051 35.281808,30.854946 34.90917,30.26465 c -0.804136,-1.273834 -1.761945,-1.481289 -1.761945,-0.381626 0,0.636021 -0.04936,0.664325 -0.613838,0.351971 -0.35027,-0.193823 -1.544378,-0.335616 -2.781033,-0.33023 l -2.167196,0.0094 2.030788,-0.509792 c 1.116933,-0.280386 3.320538,-0.872707 4.896899,-1.316268 1.576362,-0.443562 3.151402,-0.806476 3.500089,-0.806476 0.557871,0 0.613083,0.09513 0.45992,0.792478 -0.09985,0.454597 -0.05093,0.868575 0.114732,0.970959 0.158834,0.09816 0.288789,0.316973 0.288789,0.486239 0,0.169267 -0.344329,-0.02213 -0.765174,-0.425326 -0.993623,-0.95195 -1.199585,-0.927246 -0.695402,0.08341 0.403867,0.809573 0.313994,1.692751 -0.243119,2.389103 -0.325692,0.407092 -0.464173,0.412365 -1.100617,0.04191 z"
     id="path189" />
  <path
     style="fill:#ffffff;stroke-width:0.272817"
     d="m 31.744044,26.182217 c -0.986017,-1.036519 -1.576224,-2.286868 -1.238769,-2.624323 0.196755,-0.196755 3.678926,0.959866 3.882762,1.289679 0.08551,0.138358 0.01467,0.25156 -0.157425,0.25156 -0.213897,0 -0.254563,0.345275 -0.128529,1.091267 0.177854,1.052708 0.157929,1.091266 -0.563895,1.091266 -0.519008,0 -1.068704,-0.336852 -1.794144,-1.099449 z"
     id="path191" />
  <path
     style="fill:#ffffff;stroke-width:0.272817"
     d=""
     id="path193" />
  <path
     style="fill:#ffffff;stroke-width:0.272817"
     d="m 43.142052,89.618593 c -0.429787,-0.224149 -0.930148,-0.407544 -1.111915,-0.407544 -0.181766,0 -0.624894,-0.313385 -0.984728,-0.696411 -0.538497,-0.573204 -0.585383,-0.738969 -0.265017,-0.936966 0.214075,-0.132306 0.763312,-0.175743 1.220526,-0.09653 1.180203,0.20448 5.143905,1.499033 5.466901,1.785501 0.850004,0.753875 -2.960637,1.063912 -4.325767,0.351947 z"
     id="path195" />
  <path
     style="fill:#ffffff;stroke-width:0.272817"
     d="m 42.422991,84.247083 c -0.525172,-0.328273 -1.691463,-1.000246 -2.591758,-1.493275 -0.900295,-0.493029 -1.483441,-0.899204 -1.295879,-0.902612 0.658462,-0.01197 0.317652,-0.695983 -0.734466,-1.474098 -0.653667,-0.483432 -1.005367,-0.93498 -0.913895,-1.173352 0.08178,-0.213121 -0.133772,-0.688165 -0.479009,-1.055653 -0.523068,-0.55678 -0.55156,-0.66816 -0.170923,-0.66816 0.277535,0 0.45678,-0.217879 0.45678,-0.555232 0,-0.464402 0.08633,-0.509032 0.527698,-0.272817 0.881495,0.471761 1.242329,0.336074 0.699977,-0.263218 -0.477378,-0.527498 -0.476517,-0.5455 0.02592,-0.541615 0.285842,0.0022 1.250041,0.231966 2.142664,0.51057 l 1.622952,0.506553 -0.872706,0.451293 c -0.949393,0.490951 -1.044986,0.701509 -0.545326,1.201169 0.254629,0.254629 0.224316,0.32738 -0.136408,0.32738 -0.764154,0 -0.519938,0.641294 0.494447,1.298387 0.523315,0.33899 0.951481,0.752469 0.951481,0.918843 0,0.166373 0.364481,0.717617 0.809957,1.224986 0.482993,0.5501 0.744507,1.09305 0.647824,1.345003 -0.09363,0.243988 0.05405,0.586217 0.349514,0.809953 0.807353,0.611363 0.06737,0.466107 -0.988845,-0.194105 z"
     id="path197" />
  <path
     style="fill:#ffffff;stroke-width:0.272817"
     d="m 34.647716,72.416575 c -1.950639,-0.958518 -3.44563,-1.745977 -3.322203,-1.749909 0.123428,-0.0039 -0.03003,-0.330625 -0.341021,-0.725983 -0.662823,-0.842644 -0.731396,-1.4637 -0.161611,-1.4637 0.222103,0 1.193349,0.324234 2.158324,0.72052 0.964976,0.396286 1.949547,0.645674 2.187935,0.554195 0.500502,-0.19206 0.565381,-1.064042 0.138514,-1.86165 -0.332665,-0.621591 -0.07459,-1.102216 0.282016,-0.525213 0.126634,0.204898 0.374551,1.106046 0.550928,2.002549 0.200131,1.017247 0.556788,1.866112 0.948745,2.258069 0.704153,0.704152 1.787032,2.169487 1.787032,2.418182 0,0.361173 -0.841074,0.03755 -4.228659,-1.62706 z"
     id="path199" />
  <path
     style="fill:#ffffff;stroke-width:0.272817"
     d="m 86.619291,103.79981 c -1.275418,-0.34672 -3.600577,-1.14753 -5.167022,-1.77958 -3.597666,-1.45165 -5.735698,-1.69556 -7.374644,-0.84129 -1.380984,0.71981 -1.591675,0.73099 -0.977046,0.0518 0.967036,-1.06856 0.246481,-1.08175 -1.03956,-0.019 -0.728478,0.60198 -1.485277,1.09451 -1.681773,1.09451 -0.196499,0 -0.62379,-0.43124 -0.949538,-0.95831 -0.716894,-1.15996 -1.46397,-1.599057 -2.344573,-1.37804 -0.616457,0.15471 -2.291177,-0.463797 -2.291177,-0.846187 0,-0.09214 0.214843,-0.330619 0.477429,-0.529949 0.440552,-0.334427 0.428298,-0.363092 -0.158659,-0.371099 l -0.636089,-0.0087 0.56834,-0.919591 0.568337,-0.919592 -2.202269,-0.192106 c -2.86775,-0.250157 -4.797001,-0.839214 -5.605403,-1.711494 -0.988679,-1.066803 -0.862076,-1.503058 0.37251,-1.283597 0.999052,0.177593 1.887062,0.661313 1.214034,0.661313 -0.662814,0 -0.300797,0.818219 0.559274,1.264047 0.91088,0.472167 3.812719,0.675118 4.19448,0.293357 0.381834,-0.381831 -4.308275,-4.822277 -6.396667,-6.056164 -1.098668,-0.649126 -3.860937,-2.00482 -6.138376,-3.012654 -4.382301,-1.939299 -6.041145,-2.81952 -5.788924,-3.071741 0.08464,-0.08464 1.165309,0.353567 2.401496,0.973786 2.865584,1.437719 3.535099,1.598902 4.137841,0.996157 0.57375,-0.573747 0.398476,-1.486239 -0.551578,-2.871578 C 51.1053,81.33696 50.725538,81.095002 48.679817,80.369991 47.994719,80.12719 47.034276,79.515933 46.545499,79.011643 l -0.888686,-0.916891 0.770235,-0.192256 c 2.002264,-0.499781 2.245251,-1.904954 0.670331,-3.876477 -1.287995,-1.612344 -2.437013,-2.693833 -2.643091,-2.487755 -0.08436,0.08436 0.167844,0.916601 0.560462,1.849419 0.894585,2.125441 0.659469,2.543459 -0.260524,0.463191 -0.6606,-1.493737 -1.306219,-2.1326 -2.520925,-2.494557 -0.52386,-0.1561 -0.623193,-0.04905 -0.792647,0.854219 -0.179856,0.958713 -0.213224,0.989004 -0.465838,0.422874 -0.212829,-0.476968 -0.498656,-0.609811 -1.312083,-0.609811 -1.228935,0 -1.573544,-0.468249 -1.712714,-2.327219 -0.09549,-1.275475 -0.398009,-1.737056 -2.310441,-3.52523 l -0.917854,-0.858219 1.463488,0.01334 c 1.27204,0.01159 1.473943,-0.05973 1.543414,-0.545163 0.04396,-0.307171 -0.249415,-1.043776 -0.651943,-1.6369 -0.466521,-0.687427 -0.742782,-1.474071 -0.761968,-2.169685 -0.02137,-0.77476 -0.148789,-1.091266 -0.439324,-1.091266 -0.248922,0 -0.400739,0.240454 -0.387563,0.613837 0.01191,0.337611 -0.09597,0.613838 -0.239751,0.613838 -0.143777,0 -0.741643,0.433858 -1.32859,0.96413 -0.586947,0.530272 -1.200386,0.881803 -1.363197,0.78118 -0.197579,-0.12211 -0.234625,-0.86048 -0.111399,-2.220324 l 0.184622,-2.037373 -0.832595,0.59286 c -0.803229,0.57195 -0.82635,0.646 -0.655523,2.099473 l 0.177073,1.506612 -0.785664,-0.09303 c -1.361743,-0.161248 -1.114713,0.668997 0.665228,2.235766 l 1.626335,1.431559 -0.798906,0.672237 c -1.012588,0.852036 -1.334257,0.614757 -2.131773,-1.572507 -0.400579,-1.098626 -0.898201,-1.874303 -1.521474,-2.371625 -0.710506,-0.566925 -0.85658,-0.822924 -0.627244,-1.099257 0.462109,-0.556807 -0.134332,-1.572973 -1.42433,-2.426653 l -1.119232,-0.740673 1.258225,-1.248332 1.258224,-1.248331 0.843835,0.934459 c 0.828122,0.917058 0.832951,0.938485 0.259334,1.150679 -0.435171,0.16098 -0.584241,0.444992 -0.583481,1.111667 0.0013,1.163282 0.949189,2.736418 1.574976,2.613928 0.406173,-0.0795 0.470129,-0.450612 0.470129,-2.72796 0,-2.384477 0.04109,-2.598695 0.430707,-2.245519 0.959831,0.870055 2.033579,0.140315 1.830407,-1.24398 -0.109713,-0.747526 -0.05152,-0.820949 0.650711,-0.820949 0.996105,0 0.974625,-0.325959 -0.07996,-1.21333 -1.121646,-0.943803 -2.355232,-1.568222 -2.890481,-1.463109 -0.348452,0.06843 -0.287926,0.254842 0.315383,0.971335 0.786332,0.933851 0.681533,1.203135 -0.168758,0.433632 -0.695246,-0.629189 -0.908817,-0.285191 -0.351252,0.56576 0.535111,0.816683 0.382459,0.885785 -0.573324,0.259532 -0.823596,-0.539641 -1.093665,-0.356789 -0.662617,0.448631 0.294556,0.550383 0.270733,0.578256 -0.318918,0.373138 -0.350489,-0.121923 -1.048298,-0.227103 -1.550688,-0.233735 -0.626118,-0.0083 -1.080703,-0.218624 -1.44521,-0.668772 -0.632029,-0.780523 -0.580379,-1.826765 0.08477,-1.717173 0.312599,0.0515 0.512012,-0.187946 0.639352,-0.76772 0.196322,-0.893849 0.700647,-1.211909 2.341136,-1.476472 0.538687,-0.08687 1.267529,-0.464621 1.619651,-0.839437 l 0.64022,-0.681484 -0.922717,-1.90735 c -1.095454,-2.264416 -0.965901,-2.550239 1.185935,-2.61645 1.806419,-0.05558 3.652986,-0.944153 3.885256,-1.86959 0.141911,-0.565419 0.352574,-0.677117 1.408707,-0.746928 1.127818,-0.07455 1.51844,-0.33486 1.872135,-1.24759 0.01582,-0.04083 0.813811,0.110814 1.773308,0.336988 0.959497,0.226174 1.898,0.41304 2.085561,0.415258 0.618823,0.0073 0.355249,-0.540968 -0.514248,-1.06974 L 40.712453,39.874239 42.08472,39.46672 c 0.754747,-0.224136 2.091066,-0.494987 2.969598,-0.601892 0.878533,-0.106904 1.928846,-0.362883 2.334029,-0.568842 0.405184,-0.205958 0.923793,-0.37447 1.152465,-0.37447 0.769605,0 1.248229,1.479333 1.248229,3.858029 0,2.013722 -0.04065,2.192987 -0.38974,1.718652 -0.43492,-0.590962 -0.39141,-0.650526 -1.107809,1.516553 -0.348583,1.054448 -0.384565,1.092943 -0.255008,0.272816 0.08296,-0.525172 0.208758,-1.323161 0.279548,-1.773308 0.07079,-0.450148 -8.45e-4,-1.002601 -0.159184,-1.227675 -0.898704,-1.277464 -2.187351,3.654021 -1.359191,5.201452 0.402321,0.751745 1.013606,0.652803 1.564607,-0.253245 0.385188,-0.633391 0.587008,-0.739479 1.068163,-0.561488 0.446447,0.165152 0.640413,0.534006 0.783869,1.490641 0.186536,1.243908 -0.02633,4.934856 -0.330282,5.726949 -0.09812,0.255692 0.016,0.399624 0.316846,0.399624 0.408567,0 0.453395,0.223486 0.342017,1.705104 -0.0705,0.937808 -0.217265,1.91099 -0.326149,2.162628 -0.155486,0.359341 -0.08286,0.427422 0.338424,0.317254 0.656138,-0.171585 0.895648,0.1625 0.687401,0.958836 -0.112568,0.430463 -0.298035,0.555888 -0.654633,0.442708 -0.4002,-0.127018 -0.556894,0.06241 -0.800745,0.968002 -0.166749,0.619257 -0.26399,1.454176 -0.216092,1.855374 0.08574,0.71817 0.09482,0.713822 0.586879,-0.281062 0.714299,-1.444223 1.209984,-1.800998 1.377518,-0.991483 0.577779,2.791814 0.885928,4.065152 1.705903,7.049106 0.515406,1.875614 1.095798,3.696963 1.28976,4.04744 0.316792,0.572434 0.273941,0.715944 -0.421417,1.411302 -0.950392,0.950392 -1.010273,1.634491 -0.143068,1.634491 0.812222,0 1.975016,1.21868 2.480649,2.599883 0.337973,0.923211 0.399359,0.979079 0.415745,0.378366 0.01056,-0.387628 0.09095,-0.776501 0.178613,-0.864165 0.269545,-0.269549 2.639387,2.550925 3.893053,4.633327 0.653325,1.08521 2.016478,2.901039 3.029225,4.035174 1.458451,1.633263 1.814809,2.200956 1.713684,2.729967 -0.103446,0.541143 0.228007,1.023586 1.746466,2.542043 1.483187,1.483187 2.414504,2.131618 4.4645,3.108408 1.424695,0.678844 3.199368,1.394625 3.943715,1.590622 1.025723,0.270085 1.711933,0.714929 2.834516,1.837513 1.768294,1.768294 3.473862,2.592416 5.42727,2.622426 0.86573,0.0133 1.431295,0.14345 1.432288,0.32959 0.0029,0.54587 0.6524,0.87399 3.147606,1.59017 3.432276,0.98513 3.405382,0.96979 2.446778,1.3964 -1.095981,0.48774 -1.768059,0.44293 -4.501475,-0.30013 z m -9.412175,-6.677078 c 0.09274,-0.150049 -0.03003,-0.272816 -0.272817,-0.272816 -0.242785,0 -0.365552,0.122767 -0.272816,0.272816 0.09273,0.15005 0.215503,0.272817 0.272816,0.272817 0.05731,0 0.180081,-0.122767 0.272817,-0.272817 z M 62.884241,87.969826 c 0,-0.95832 -1.94061,-3.729521 -2.335305,-3.334826 -0.334468,0.334468 0.185354,1.763091 1.002023,2.753852 0.882502,1.070628 1.333282,1.267056 1.333282,0.580974 z m -3.115348,-4.693229 c -0.314759,-0.31476 -0.47624,0.178198 -0.261593,0.79858 l 0.219495,0.634397 0.100276,-0.637261 c 0.05515,-0.350496 0.02897,-0.708568 -0.05818,-0.795716 z m -0.976902,-1.525722 c 0,-0.42264 -1.023783,-1.428381 -1.236981,-1.215183 -0.0783,0.0783 -0.01921,0.466312 0.131329,0.862245 0.28213,0.742059 1.105652,1.004937 1.105652,0.352938 z m -3.819433,-4.680167 c 0,-0.375123 -0.122768,-0.682042 -0.272817,-0.682042 -0.150049,0 -0.272816,0.306919 -0.272816,0.682042 0,0.375123 0.122767,0.682041 0.272816,0.682041 0.150049,0 0.272817,-0.306918 0.272817,-0.682041 z m -1.364083,-4.215823 c 0,-0.879989 -0.506976,-2.195369 -0.846141,-2.195369 -0.501983,0 -0.544943,0.669039 -0.115211,1.794274 0.530618,1.389404 0.961352,1.569116 0.961352,0.401095 z m -8.730134,-2.434782 c 0,-0.131675 -0.184151,-0.392242 -0.409225,-0.579037 -0.331883,-0.275438 -0.409225,-0.264564 -0.409225,0.05753 0,0.218439 0.08185,0.479006 0.181878,0.579037 0.25909,0.259092 0.636572,0.224973 0.636572,-0.05753 z m -4.305956,-0.901869 c -0.177558,-0.17756 -0.40143,-0.244237 -0.497492,-0.148175 -0.09606,0.09606 -0.09408,0.384633 0.0044,0.641269 0.136471,0.355639 0.254788,0.390878 0.497492,0.148175 0.242704,-0.242706 0.241658,-0.395216 -0.0044,-0.641269 z m 10.849379,-4.246847 c -0.003,-0.546012 -0.07044,-0.64558 -0.247576,-0.365761 -0.133869,0.211467 -0.180238,0.549077 -0.103042,0.750247 0.221379,0.576903 0.355154,0.430207 0.350618,-0.384486 z M 50.248223,64.33358 c -0.08709,-0.217635 -0.151736,-0.152989 -0.164827,0.164826 -0.01185,0.287595 0.05263,0.448727 0.143289,0.358072 0.09065,-0.09065 0.100347,-0.325959 0.02154,-0.522898 z m -9.311969,-0.673215 c -0.112605,-0.448653 -0.05789,-0.800952 0.143758,-0.925575 0.565899,-0.349745 0.0492,-1.42288 -1.537178,-3.192553 -1.672055,-1.865252 -2.405445,-2.18778 -2.171237,-0.954858 0.100368,0.528358 -0.0318,0.387157 -0.446887,-0.47743 -0.330143,-0.687656 -0.644464,-1.065943 -0.714575,-0.859995 -0.211244,0.620521 0.494935,3.396452 1.259482,4.950916 0.87255,1.774057 1.50344,2.25621 2.022816,1.545922 0.341357,-0.466833 0.381527,-0.463398 0.868072,0.07423 0.673974,0.744733 0.794543,0.71109 0.575749,-0.160655 z m 6.059713,-0.435103 c 0.432793,-0.537246 0.700871,-2.114329 0.359401,-2.114329 -0.171514,0 -0.294493,-0.569635 -0.294493,-1.364084 0,-1.182205 -0.07275,-1.364083 -0.545634,-1.364083 -0.344538,0 -0.545633,-0.181878 -0.545633,-0.49349 0,-0.271419 -0.167991,-0.723231 -0.373313,-1.004025 -0.361512,-0.494398 -0.383071,-0.492302 -0.682042,0.06633 -0.592923,1.107888 -0.204248,5.250619 0.492619,5.250619 0.111285,0 0.342178,0.306919 0.513096,0.682042 0.34401,0.755021 0.661444,0.855627 1.075999,0.341021 z m 3.884341,-0.629938 c 0,-0.216219 -0.122768,-0.393125 -0.272817,-0.393125 -0.150049,0 -0.272816,0.252781 -0.272816,0.561735 0,0.308953 0.122767,0.485859 0.272816,0.393124 0.150049,-0.09274 0.272817,-0.345516 0.272817,-0.561734 z M 33.965675,59.626542 c 0,-0.366268 -0.123635,-0.742351 -0.274744,-0.835742 -0.345307,-0.213411 -0.654712,0.546083 -0.445049,1.092458 0.247699,0.645492 0.719793,0.477119 0.719793,-0.256716 z m 15.992521,-1.93684 c 0.138134,-1.071752 0.103907,-1.287094 -0.164628,-1.035766 -0.186461,0.174513 -0.401485,0.911118 -0.477832,1.6369 -0.189438,1.800865 0.404501,1.245131 0.64246,-0.601134 z m -0.991782,-0.466407 c -0.0031,-0.849129 -0.07496,-1.049938 -0.268639,-0.750246 -0.348118,0.538674 -0.348118,1.909717 0,1.909717 0.150049,0 0.270936,-0.521762 0.268639,-1.159471 z m -5.997789,0.08431 c 0,-0.441292 -0.122768,-0.878223 -0.272817,-0.970959 -0.162358,-0.100343 -0.272817,0.224514 -0.272817,0.802349 0,0.534028 0.122768,0.970959 0.272817,0.970959 0.150049,0 0.272817,-0.361057 0.272817,-0.802349 z m -7.638867,-0.246634 c 0,-0.126793 -0.245535,-0.45274 -0.545633,-0.724325 -0.54518,-0.49338 -0.692392,-0.290665 -0.380037,0.523321 0.171093,0.44586 0.92567,0.609712 0.92567,0.201004 z m -1.6369,-0.604017 c 0,-0.141194 -0.184151,-0.256716 -0.409225,-0.256716 -0.421886,0 -0.542006,0.321913 -0.234764,0.629155 0.217962,0.217962 0.643989,-0.02842 0.643989,-0.372439 z m 3.2738,-2.118877 c 0,-0.379581 -1.146901,-1.324666 -2.848526,-2.347282 -1.80881,-1.087031 -2.337859,-1.199851 -2.328924,-0.496645 0.01109,0.872516 0.929102,1.665804 2.7221,2.352258 1.917992,0.734309 2.45535,0.841912 2.45535,0.491669 z m 0.554183,-2.083379 c -0.47784,-0.575762 -3.252505,-1.5552 -4.079234,-1.439941 -0.648794,0.09045 -0.661101,0.115898 -0.157974,0.326641 0.300098,0.125702 1.036703,0.440106 1.6369,0.698676 1.56956,0.67618 1.850045,0.767955 2.420551,0.792009 0.417888,0.01762 0.450595,-0.05105 0.179757,-0.377385 z m 8.871102,-0.666991 C 46.151952,51.123611 45.889092,50.7439 45.807809,50.7439 c -0.203755,0 0.166207,1.14977 0.506882,1.575288 0.483247,0.603598 0.53148,0.146893 0.07725,-0.731486 z M 36.855337,50.33468 c -0.24579,-0.375123 -0.321293,-0.682042 -0.167785,-0.682042 0.604377,0 0.226887,-0.54007 -0.768529,-1.099525 -0.5762,-0.323842 -1.263383,-0.954035 -1.527073,-1.400428 -0.59914,-1.014262 -0.862387,-0.816344 -0.457818,0.344204 0.167397,0.480198 0.304359,1.15726 0.304359,1.504582 0,0.699969 1.664331,2.01525 2.550057,2.01525 0.485218,0 0.488919,-0.03779 0.06679,-0.682041 z m 8.729162,-0.885273 c -0.293412,-0.293412 -0.449179,0.117516 -0.243211,0.641612 0.193211,0.491633 0.207803,0.492485 0.303355,0.01769 0.05521,-0.27433 0.02814,-0.571018 -0.06014,-0.659307 z m -8.072208,-1.690385 c 0,-0.698131 -0.470018,-0.964116 -0.970173,-0.549024 -0.304202,0.252465 -0.326119,0.422291 -0.09105,0.705529 0.452488,0.545215 1.061225,0.455441 1.061225,-0.156505 z m -4.365066,-2.198634 c 0,-0.150049 -0.122768,-0.272817 -0.272817,-0.272817 -0.150049,0 -0.272817,0.122768 -0.272817,0.272817 0,0.150049 0.122768,0.272817 0.272817,0.272817 0.150049,0 0.272817,-0.122768 0.272817,-0.272817 z m 15.55055,-7.093233 c 0,-0.15005 -0.122768,-0.272817 -0.272817,-0.272817 -0.150049,0 -0.272817,0.122767 -0.272817,0.272817 0,0.150049 0.122768,0.272816 0.272817,0.272816 0.150049,0 0.272817,-0.122767 0.272817,-0.272816 z"
     id="path201" />
  <path
     style="fill:#ffffff;stroke-width:0.272817"
     d=""
     id="path203" />
  <path
     style="fill:#ffffff;stroke-width:0.272817"
     d="m 79.389649,110.2136 c -4.129284,-0.33599 -14.465508,-1.86043 -16.778225,-2.47454 -1.125368,-0.29883 -3.251968,-0.99893 -4.725778,-1.55578 -2.293707,-0.86663 -2.56876,-1.03337 -1.909716,-1.15769 0.726236,-0.13699 0.677028,-0.189 -0.866964,-0.9164 -2.570849,-1.21116 -5.640339,-2.93755 -5.490082,-3.08781 0.07515,-0.0751 1.463923,0.53917 3.086172,1.36515 1.622249,0.82598 5.282126,2.43638 8.13306,3.57867 4.725915,1.89355 5.520697,2.12647 9.00295,2.63842 2.500053,0.36755 4.90321,0.54015 6.956825,0.49966 1.725565,-0.034 3.733526,0.0835 4.462132,0.2612 0.847199,0.20661 2.186386,0.25802 3.715005,0.14263 1.314643,-0.0992 2.98971,-0.0838 3.722367,0.0342 1.328257,0.21404 1.32951,0.21524 0.433157,0.41369 -1.566873,0.34692 -6.911592,0.4888 -9.740903,0.25859 z"
     id="path205" />
  <path
     style="fill:#ffffff;stroke-width:0.272817"
     d="m 43.217442,97.502939 c -0.898375,-0.266237 -1.796352,-0.892034 -3.181368,-2.217085 -1.061331,-1.01538 -2.744411,-2.571229 -3.740177,-3.457441 -1.896687,-1.688015 -5.604022,-6.84936 -5.604022,-7.801909 0,-0.284621 -0.165174,-0.615668 -0.367053,-0.735661 -0.354996,-0.211002 -5.497016,-7.748409 -6.167002,-9.039872 -0.181813,-0.350462 -0.268291,-0.699481 -0.192174,-0.775599 0.07612,-0.07612 0.325907,0.224212 0.555088,0.667399 0.229181,0.443187 1.112425,1.651579 1.962764,2.685316 0.850339,1.033736 1.744144,2.291101 1.986232,2.794145 0.242089,0.503043 0.945682,1.423799 1.563541,2.046125 0.797416,0.803181 1.297721,1.659333 1.724223,2.950593 0.654602,1.981847 1.664634,3.228016 2.616338,3.228016 0.449317,0 0.846355,0.406683 1.531493,1.568696 0.598728,1.015458 1.235542,1.713019 1.805675,1.977921 0.484412,0.225073 0.886252,0.531992 0.892977,0.682041 0.0221,0.493157 2.406791,2.793342 3.068013,2.959298 1.367744,0.343282 3.615099,2.3616 3.017753,2.710202 -0.121345,0.07081 -0.78388,-0.03817 -1.472301,-0.242185 z"
     id="path207" />
  <path
     style="fill:#ffffff;stroke-width:0.207341"
     d="m 87.29042,103.97218 c -0.912299,-0.27463 -1.823501,-0.50154 -2.024891,-0.50426 -0.201392,-0.003 -1.600942,-0.50947 -3.11011,-1.12614 -3.371716,-1.37772 -4.259466,-1.62108 -5.881896,-1.61236 -0.984991,0.005 -1.522832,0.13872 -2.384418,0.59149 -1.587288,0.83414 -1.582117,0.83407 -0.955861,0.013 1.047263,-1.373033 0.598027,-1.348181 -1.006228,0.0557 -0.651585,0.57018 -1.306159,1.0367 -1.454611,1.0367 -0.148452,0 -0.530473,-0.34206 -0.848938,-0.76014 -1.240111,-1.628 -1.470491,-1.788124 -2.394345,-1.66421 -0.610861,0.0819 -1.074153,1.5e-4 -1.642965,-0.290038 -0.896558,-0.457389 -0.925938,-0.526301 -0.449053,-1.053253 0.309564,-0.342064 0.310761,-0.379172 0.01223,-0.379172 -0.559252,0 -0.603295,-0.376595 -0.120426,-1.029712 0.253704,-0.343153 0.39978,-0.685414 0.324613,-0.760579 -0.07517,-0.07517 -1.001572,-0.210134 -2.058678,-0.299927 -3.455599,-0.293528 -5.146637,-0.88063 -5.80965,-2.017018 -0.663708,-1.137583 -0.389524,-1.297806 1.434793,-0.838436 0.732098,0.184344 0.869349,0.279939 0.610167,0.424984 -0.534655,0.299209 -0.388505,0.874528 0.329974,1.298944 0.750198,0.443153 3.593436,0.683106 4.091163,0.345272 0.239269,-0.162406 0.04133,-0.479909 -1.008353,-1.617405 -3.125622,-3.387113 -5.084922,-4.654947 -11.789432,-7.628768 -3.803437,-1.687033 -5.790127,-2.727104 -5.590497,-2.926734 0.15202,-0.15202 1.838794,0.510925 3.190695,1.254024 2.50664,1.377822 3.807149,1.379213 3.807149,0.0041 0,-1.439239 -1.534961,-3.452687 -2.854736,-3.744629 -1.389031,-0.307262 -1.890255,-0.569685 -3.095113,-1.620477 L 45.327437,78.0037 46.228948,77.868509 c 0.953289,-0.142938 1.977753,-0.899307 1.977753,-1.460167 0,-0.733057 -0.680096,-1.859162 -2.008879,-3.326298 -1.936222,-2.137828 -2.151348,-2.075978 -1.101231,0.316617 0.639046,1.456013 0.766963,2.073407 0.429578,2.073407 -0.105843,0 -0.385564,-0.516162 -0.621601,-1.147025 -0.595656,-1.592034 -0.990777,-2.130753 -1.904796,-2.597052 -1.143628,-0.583434 -1.355673,-0.523429 -1.507593,0.426626 -0.153522,0.960068 -0.375141,1.050372 -0.720044,0.293392 -0.217078,-0.476434 -0.330177,-0.522254 -1.018149,-0.41248 -0.42567,0.06792 -0.877555,0.05252 -1.00419,-0.03422 -0.446651,-0.305933 -0.910129,-1.494908 -0.910129,-2.334783 0,-1.186799 -0.40177,-1.844969 -1.962882,-3.215551 -1.332558,-1.169919 -1.760305,-1.785018 -0.933674,-1.342618 0.231492,0.123891 0.907941,0.19715 1.50322,0.1628 1.024336,-0.05911 1.086015,-0.09481 1.151188,-0.666376 0.0505,-0.442923 -0.158679,-0.926572 -0.784672,-1.814231 -0.469444,-0.665669 -0.751384,-1.21031 -0.626533,-1.21031 0.135526,0 0.201069,-0.313322 0.16265,-0.777527 -0.05114,-0.61785 -0.149513,-0.777528 -0.479033,-0.777528 -0.323615,0 -0.406109,0.125216 -0.375647,0.570187 0.02577,0.37646 -0.06255,0.570187 -0.259952,0.570187 -0.164443,0 -0.741829,0.419345 -1.283079,0.931874 -0.54125,0.512532 -1.098943,0.932397 -1.239317,0.933033 -0.406833,0.0019 -0.50433,-0.814787 -0.29698,-2.48748 0.180359,-1.454958 0.01035,-2.378499 -0.292543,-1.589175 -0.07296,0.190125 -0.25934,0.345682 -0.414183,0.345682 -0.639545,0 -0.737927,0.727992 -0.397485,2.941246 0.0819,0.532469 0.04842,0.555144 -0.765389,0.518351 -1.356784,-0.06134 -1.227857,0.369168 0.633055,2.11389 l 1.685,1.579795 -0.714574,0.570172 c -1.180142,0.941659 -1.48826,0.780335 -2.079069,-1.088553 -0.516212,-1.632915 -1.248056,-2.668677 -2.18064,-3.086207 -0.741121,-0.331812 -0.770689,-0.376608 -0.400967,-0.607502 0.826365,-0.516075 0.277705,-1.60485 -1.385302,-2.749029 l -0.923648,-0.635486 0.962284,-1.074218 c 1.412235,-1.576508 1.473452,-1.590515 2.436951,-0.557593 l 0.828011,0.887671 -0.55223,0.289342 c -0.468213,0.245321 -0.55223,0.425625 -0.55223,1.185091 0,0.930406 0.585962,2.052418 1.301781,2.492674 0.594352,0.36555 0.76496,-0.187224 0.76845,-2.489807 0.0028,-1.832848 -0.05512,-2.180683 -0.463341,-2.783655 -0.660195,-0.975152 -2.122303,-1.714893 -3.092047,-1.564395 -0.666901,0.103499 -0.826182,0.03858 -1.306857,-0.532674 -0.704682,-0.837467 -0.683123,-1.967662 0.0361,-1.892486 0.373709,0.03906 0.48316,-0.08696 0.595473,-0.685645 0.171149,-0.912303 0.721783,-1.28827 2.251381,-1.537218 1.293643,-0.210546 2.180238,-0.850368 2.186224,-1.577715 0.002,-0.239398 -0.322979,-1.05064 -0.72211,-1.80276 -0.748268,-1.410031 -0.911584,-2.287775 -0.475786,-2.557113 0.137449,-0.08495 0.907201,-0.161879 1.710561,-0.170959 1.204438,-0.01361 1.652474,-0.122218 2.554196,-0.619153 1.061234,-0.584842 1.510683,-1.251941 1.191465,-1.768445 -0.09511,-0.153888 0.119299,-0.1828 0.684905,-0.09236 1.136213,0.181688 2.282867,-0.223606 2.443515,-0.863681 0.151203,-0.602439 -0.01322,-0.595409 2.267713,-0.09696 1.020028,0.222905 1.931663,0.328215 2.025856,0.234022 0.16024,-0.16024 -0.345981,-0.645201 -1.235403,-1.18352 -0.335676,-0.203166 -0.238416,-0.277508 0.755066,-0.577144 0.627205,-0.189166 1.793497,-0.444403 2.591758,-0.567194 0.798262,-0.12279 1.87125,-0.361685 2.384418,-0.530876 0.513168,-0.169192 1.236963,-0.355795 1.608435,-0.414674 0.640473,-0.101516 0.698172,-0.05558 1.115716,0.88835 0.392107,0.886424 0.427394,1.246451 0.322314,3.28848 -0.0649,1.261192 -0.257271,2.790421 -0.427489,3.398285 -0.273532,0.976805 -0.273694,1.091472 -0.0015,0.986977 0.212622,-0.08159 0.409009,0.122075 0.633706,0.657189 0.263302,0.627054 0.303028,1.291144 0.207623,3.470847 -0.06489,1.482485 -0.18263,2.912371 -0.261648,3.177523 -0.118047,0.39611 -0.07392,0.470071 0.24743,0.414681 0.35245,-0.06075 0.391057,0.07602 0.39063,1.383971 -2.07e-4,0.798262 -0.08073,1.768629 -0.178815,2.156371 -0.146233,0.578046 -0.124095,0.684168 0.122943,0.58937 0.558862,-0.214456 0.845701,0.167346 0.701838,0.934196 -0.116121,0.61898 -0.203233,0.705837 -0.626727,0.624881 -0.41048,-0.07847 -0.526836,0.02075 -0.703262,0.599679 -0.337538,1.107603 -0.473431,2.420775 -0.263913,2.550263 0.106073,0.06556 0.255752,-0.09209 0.33262,-0.350331 0.205653,-0.690907 0.993246,-1.814192 1.273171,-1.815825 0.133486,-8.3e-4 0.301776,0.301819 0.373978,0.672441 0.373317,1.916288 0.653911,3.063097 1.585348,6.479395 0.559651,2.052673 1.173944,4.041039 1.365097,4.418592 0.342119,0.675727 0.339137,0.693552 -0.190705,1.140373 -0.543057,0.457964 -0.992001,1.173312 -0.992001,1.580658 0,0.121535 0.249252,0.220971 0.553894,0.220971 0.759076,0 2.279203,1.594842 2.465216,2.586382 0.185535,0.988984 0.505681,1.139148 0.505681,0.237189 0,-0.39913 0.0933,-0.783355 0.207341,-0.853835 0.114037,-0.07048 0.207341,-0.03378 0.207341,0.08156 0,0.115337 0.451005,0.660712 1.002235,1.211939 0.551229,0.55123 1.710807,2.118503 2.576838,3.48283 0.866028,1.364326 2.325626,3.312505 3.243548,4.329285 1.33573,1.479585 1.645368,1.942644 1.550846,2.319253 -0.215722,0.8595 1.7366,3.163873 3.92737,4.635571 1.413072,0.949262 4.112119,2.179263 6.053659,2.758751 1.499863,0.447661 1.781492,0.620854 3.024261,1.859837 1.828114,1.822547 3.139158,2.479356 5.195202,2.602706 1.304842,0.0783 1.606795,0.16183 1.686505,0.46664 0.14051,0.53731 1.104487,0.96874 3.666266,1.64086 2.879369,0.75543 2.986184,0.82489 1.963043,1.2765 -1.102687,0.48672 -1.960964,0.45716 -3.929047,-0.13529 z M 77.234398,97.035431 c 0,-0.114037 -0.139955,-0.207341 -0.311011,-0.207341 -0.171056,0 -0.311011,0.0933 -0.311011,0.207341 0,0.114037 0.139955,0.207341 0.311011,0.207341 0.171056,0 0.311011,-0.0933 0.311011,-0.207341 z M 62.927892,88.007852 c 0,-0.757772 -1.791052,-3.412861 -2.302226,-3.412861 -0.529152,0 0.195209,1.929322 1.148224,3.058275 0.603757,0.715218 1.154002,0.884289 1.154002,0.354586 z m -3.11011,-4.283692 c 0,-0.482295 -0.06225,-0.601242 -0.227938,-0.435552 -0.125364,0.125365 -0.16573,0.423935 -0.0897,0.66349 0.197973,0.62376 0.317636,0.53789 0.317636,-0.227938 z m -1.036704,-1.96674 c 0,-0.377822 -0.779233,-1.309242 -1.095322,-1.309242 -0.229022,0 -0.0038,1.022733 0.308017,1.39839 0.310781,0.37447 0.787305,0.320512 0.787305,-0.08915 z m -3.835802,-4.626693 c 0,-0.266086 -0.116629,-0.52267 -0.259176,-0.570187 -0.170964,-0.05699 -0.259175,0.137075 -0.259175,0.570187 0,0.433112 0.08821,0.627175 0.259175,0.570187 0.142547,-0.04752 0.259176,-0.3041 0.259176,-0.570187 z m -1.347714,-4.373051 c 0,-0.843884 -0.555167,-2.111109 -0.878248,-2.004696 -0.431164,0.142016 -0.418944,0.910607 0.03064,1.926962 0.457033,1.033199 0.847611,1.06902 0.847611,0.07773 z m -9.020469,-2.677802 c -0.412533,-0.455843 -0.638718,-0.40712 -0.445653,0.096 0.06753,0.175975 0.280121,0.319954 0.472431,0.319954 0.319079,0 0.316737,-0.03637 -0.02678,-0.415952 z m -4.032805,-0.506011 c -0.368118,-0.443554 -0.682687,-0.183664 -0.405222,0.334785 0.160644,0.300165 0.291732,0.359734 0.447923,0.203544 0.15619,-0.15619 0.143693,-0.313736 -0.0427,-0.538329 z m 10.979867,-4.145646 c 0,-0.278363 -0.0933,-0.56378 -0.20734,-0.634259 -0.120967,-0.07476 -0.207341,0.136073 -0.207341,0.506114 0,0.348843 0.0933,0.634259 0.207341,0.634259 0.114037,0 0.20734,-0.227751 0.20734,-0.506114 z M 50.214407,64.44407 c -0.06619,-0.165401 -0.115319,-0.116272 -0.125267,0.125269 -0.009,0.218571 0.04,0.341032 0.1089,0.272135 0.0689,-0.0689 0.07626,-0.247731 0.01636,-0.397404 z m -9.351974,-0.880074 c -0.102307,-0.545345 -0.05241,-0.756992 0.213568,-0.905838 0.548412,-0.306908 0.226063,-1.022204 -1.211091,-2.687429 -2.066442,-2.394379 -2.850029,-2.727529 -2.161462,-0.918967 0.689622,1.81133 0.563181,1.81076 -0.326127,-0.0015 -0.48695,-0.992327 -0.955341,-1.80873 -1.040869,-1.81425 -0.708521,-0.04573 0.876453,5.116818 1.929606,6.285075 0.505901,0.561194 0.638265,0.614935 0.961344,0.390306 0.75398,-0.524225 0.963766,-0.53954 1.29205,-0.09432 0.44778,0.60728 0.497508,0.570579 0.342981,-0.253122 z m 6.265561,-0.687939 c 0.424744,-1.123084 0.468235,-1.661763 0.144201,-1.786108 -0.226992,-0.0871 -0.309534,-0.4512 -0.309534,-1.365379 0,-1.156789 -0.03735,-1.255975 -0.518352,-1.3767 -0.35645,-0.08946 -0.518352,-0.272602 -0.518352,-0.586343 0,-0.250935 -0.133674,-0.637359 -0.297053,-0.858721 -0.244118,-0.330754 -0.345724,-0.354443 -0.570186,-0.132932 -0.402844,0.397547 -0.373588,4.121126 0.03788,4.82084 1.208781,2.05559 1.637502,2.326856 2.031399,1.285343 z m 3.560493,-0.207341 c -0.0054,-0.489108 -0.03648,-0.518358 -0.218562,-0.205699 -0.116741,0.20047 -0.155049,0.457054 -0.08513,0.570187 0.21438,0.346873 0.310286,0.23177 0.303692,-0.364488 z M 33.900199,59.83474 c 0,-0.678947 -0.210218,-1.180027 -0.436408,-1.040234 -0.215392,0.133119 -0.251396,1.199391 -0.04739,1.4034 0.279073,0.279074 0.483795,0.125397 0.483795,-0.363166 z m 15.939728,-1.452963 c 0.284892,-1.131403 0.297708,-1.777776 0.03525,-1.777776 -0.251127,0 -0.629097,1.343284 -0.63061,2.24115 -0.0015,0.91912 0.30789,0.678284 0.595362,-0.463374 z m -0.807034,-1.207589 c 0.0017,-0.42764 -0.07975,-0.777527 -0.181092,-0.777527 -0.249016,0 -0.479937,1.307545 -0.309406,1.751946 0.205736,0.536135 0.486608,-0.02185 0.490498,-0.974419 z m -6.01288,0.195104 c -0.004,-0.577522 -0.313986,-1.090824 -0.488335,-0.808722 -0.182974,0.296058 0.09031,1.510961 0.309414,1.375544 0.100153,-0.0619 0.180667,-0.316968 0.178921,-0.566822 z m -10.89702,-0.05441 c 0.277292,-0.277293 0.365501,-0.540677 0.376959,-1.125564 0.0011,-0.05702 -0.05956,-0.365041 -0.134844,-0.684494 -0.133459,-0.566331 -0.119194,-0.577507 0.571693,-0.447896 0.895079,0.167918 1.15576,-0.191177 0.582081,-0.801831 -0.705012,-0.750451 -2.661472,-1.836024 -3.176322,-1.762432 -0.459729,0.06571 -0.448084,0.100222 0.320367,0.949389 0.818017,0.90394 0.640312,1.192277 -0.28752,0.466517 -0.777638,-0.608278 -0.915565,-0.499437 -0.407941,0.321917 0.250384,0.405129 0.409708,0.782133 0.354053,0.837788 -0.05565,0.05565 -0.443494,-0.100775 -0.861866,-0.347621 -0.798707,-0.471249 -1.108337,-0.435618 -0.812245,0.09347 0.351323,0.627779 2.575145,2.826578 2.858745,2.826578 0.160061,0 0.437638,-0.14662 0.61684,-0.325821 z m 3.039865,-0.468759 c -0.25505,-0.476565 -0.823351,-0.957886 -0.964422,-0.816815 -0.225117,0.225117 0.407378,1.196713 0.779042,1.196713 0.312583,0 0.348883,-0.07439 0.18538,-0.379898 z m -1.47,-0.345794 c 0,-0.171056 -0.134448,-0.311011 -0.298774,-0.311011 -0.346393,0 -0.580224,0.295933 -0.386725,0.489432 0.247805,0.247804 0.685499,0.133882 0.685499,-0.178421 z m 3.11011,-2.271908 c 0,-0.594877 -3.608521,-3.015279 -4.49541,-3.015279 -0.660238,0 -0.623516,0.575881 0.08942,1.402316 0.391674,0.454028 1.089497,0.851991 2.228912,1.271129 1.932528,0.710888 2.177077,0.749286 2.177077,0.341834 z m 0.829363,-1.758242 c 0,-0.361417 -2.692139,-1.524933 -3.767454,-1.628258 -1.129877,-0.108567 -1.282667,0.203629 -0.229072,0.468064 0.312887,0.07853 1.036869,0.354957 1.608849,0.614283 1.73425,0.786279 2.387677,0.935676 2.387677,0.545911 z m 8.845279,-0.690963 c -0.363342,-0.8696 -0.882651,-1.297276 -0.655947,-0.540204 0.189739,0.633628 0.730094,1.49085 0.858699,1.362245 0.05459,-0.05459 -0.03665,-0.424506 -0.202752,-0.822041 z m -9.382932,-1.03259 c -0.08109,-0.142547 -0.287668,-0.422457 -0.459053,-0.622022 -0.199859,-0.232722 -0.225728,-0.362846 -0.07213,-0.362846 0.579043,0 0.154323,-0.678251 -0.787676,-1.257868 -0.564934,-0.347608 -1.2287,-0.958124 -1.475036,-1.356704 -0.57732,-0.934125 -0.755639,-0.752188 -0.322866,0.329418 0.185331,0.463188 0.336966,1.103918 0.336966,1.423844 0,0.623406 0.52487,1.21773 1.555055,1.760829 0.765385,0.403501 1.432173,0.449967 1.224743,0.08535 z m 8.436042,-1.255701 c -0.164153,-0.164153 -0.226785,-0.110352 -0.226785,0.194808 0,0.548155 0.289956,0.839114 0.382291,0.383613 0.0392,-0.1934 -0.03077,-0.453689 -0.155506,-0.578421 z m -8.143793,-1.748966 c -0.07378,-0.639255 -0.716926,-0.903361 -0.918793,-0.377303 -0.148398,0.386719 0.256497,0.945717 0.685005,0.945717 0.204114,0 0.278516,-0.180896 0.233788,-0.568414 z m 11.023788,-0.669103 c 0.467551,-0.916475 1.078626,-3.301131 0.91413,-3.567292 -0.236339,-0.382406 -0.492065,-0.124202 -0.703015,0.709831 -0.122584,0.484659 -0.306471,1.067804 -0.40864,1.295879 -0.171301,0.382403 -0.186762,0.374333 -0.198636,-0.10367 -0.0071,-0.285094 0.08598,-0.874347 0.206799,-1.309452 0.262158,-0.944076 0.0747,-2.007999 -0.353793,-2.007999 -0.817205,0 -1.716248,4.262257 -1.130073,5.357535 0.405357,0.757415 1.184661,0.582837 1.673228,-0.374832 z m -15.339879,-1.56158 c 0,-0.171056 -0.0933,-0.311011 -0.207341,-0.311011 -0.114037,0 -0.20734,0.139955 -0.20734,0.311011 0,0.171056 0.0933,0.311011 0.20734,0.311011 0.114038,0 0.207341,-0.139955 0.207341,-0.311011 z m 15.55055,-7.061819 c 0,-0.177786 -0.0933,-0.265583 -0.207341,-0.195104 -0.114037,0.07048 -0.20734,0.21594 -0.20734,0.323247 0,0.107307 0.0933,0.195104 0.20734,0.195104 0.114038,0 0.207341,-0.145461 0.207341,-0.323247 z"
     id="path192" />
  <path
     style="fill:#ffffff;stroke-width:0.207341"
     d="m 36.284616,73.248012 c -1.026336,-0.527427 -2.56584,-1.266637 -3.421121,-1.64269 -0.85528,-0.376052 -1.559271,-0.756203 -1.564424,-0.844779 -0.0052,-0.08857 -0.215085,-0.553869 -0.466516,-1.033984 -0.251431,-0.480116 -0.457148,-0.969959 -0.457148,-1.088539 0,-0.377196 0.888887,-0.223208 2.378437,0.412031 2.460144,1.049162 3.180679,0.759683 2.540475,-1.020651 -0.185844,-0.516811 -0.287607,-0.989692 -0.22614,-1.050846 0.275808,-0.274402 0.853282,0.901685 1.088208,2.216247 0.250798,1.403381 0.861504,2.75241 1.246016,2.75241 0.202903,0 1.473972,1.818641 1.473972,2.108954 0,0.36317 -0.794566,0.115411 -2.591759,-0.808153 z"
     id="path196" />
  <path
     style="fill:#ffffff;stroke-width:0.207341"
     d="m 42.815847,97.407703 c -0.846999,-0.323451 -1.547246,-0.840746 -2.721923,-2.010769 -0.869852,-0.866406 -2.246357,-2.112426 -3.058899,-2.768935 -2.285263,-1.846418 -6.062402,-6.960341 -6.449172,-8.731625 -0.07795,-0.357003 -0.227172,-0.63387 -0.331596,-0.615259 -0.410282,0.07312 -5.949413,-8.544597 -7.348744,-11.433098 -0.774626,-1.598985 -1.469314,-3.140504 -1.54375,-3.425598 l -0.135338,-0.518351 0.421243,0.518351 c 0.429794,0.528873 1.370273,2.355051 2.455944,4.768836 0.334417,0.743513 1.415862,2.360642 2.412241,3.607123 0.993337,1.242675 1.928995,2.553617 2.079241,2.913204 0.150245,0.359588 0.78445,1.165073 1.409344,1.789967 0.9173,0.917299 1.22774,1.414566 1.611502,2.581323 0.261431,0.794834 0.652844,1.7987 0.869806,2.230813 0.418309,0.833127 1.445121,1.596694 2.1489,1.597982 0.301726,5.6e-4 0.650158,0.388351 1.212221,1.349182 0.826848,1.413474 1.525794,2.103311 2.337504,2.307038 0.266565,0.0669 0.484663,0.277502 0.484663,0.468001 0,0.401214 2.473728,2.926136 2.866809,2.926136 0.788735,0 3.353411,2.015184 3.353411,2.634929 0,0.382699 -0.756491,0.313651 -2.073407,-0.18925 z"
     id="path198" />
  <path
     style="fill:#ffffff;stroke-width:0.207341"
     d="M 22.321577,67.825463 C 21.871376,67.128915 21.066868,65.519316 20.533782,64.248576 20.000695,62.977837 19.254424,61.321105 18.875401,60.56695 18.496378,59.812796 18.117325,58.962502 18.033062,58.677408 l -0.153206,-0.518352 0.459371,0.410488 c 0.252654,0.225768 0.843017,1.205453 1.311917,2.177077 0.4689,0.971624 1.110988,2.176153 1.426862,2.67673 0.315874,0.500578 0.823638,1.666869 1.128364,2.591759 0.304725,0.924889 0.688143,1.946872 0.852039,2.271072 0.559141,1.106029 0.08364,0.808714 -0.736832,-0.460719 z"
     id="path200" />
  <path
     style="fill:#ffffff;stroke-width:0.207341"
     d=""
     id="path202" />
  <path
     style="fill:#ffffff;stroke-width:0.207341"
     d="m 14.331478,43.425131 c -0.699318,-1.106902 -0.917385,-2.505319 -0.534733,-3.429122 0.492872,-1.189899 2.545291,-2.273618 5.226761,-2.759835 l 0.777527,-0.140985 v 0.751036 c 0,1.017147 0.840817,1.834377 2.333898,2.268427 2.246851,0.653178 3.439632,-0.36039 1.589407,-1.3506 -0.513365,-0.274745 -0.507137,-0.550949 0.01617,-0.71704 0.623175,-0.197788 0.504905,-0.463895 -0.414681,-0.933033 -1.387933,-0.708071 -1.238731,-0.820848 1.932246,-1.460529 1.160993,-0.234206 3.417143,-0.80566 5.013666,-1.269896 1.596523,-0.464236 3.835802,-1.116516 4.976176,-1.449512 1.966114,-0.574118 6.755032,-1.625602 7.403704,-1.625602 0.238786,0 0.282502,0.235332 0.208804,1.124023 l -0.09321,1.124022 0.942631,0.141356 c 1.172439,0.175819 1.386755,0.04783 1.386755,-0.828151 0,-0.514239 -0.158239,-0.828173 -0.608342,-1.20691 l -0.608342,-0.511886 0.971188,-0.120493 c 2.195383,-0.272374 5.040819,-0.388454 6.143854,-0.250639 0.966934,0.12081 1.215527,0.235613 1.403489,0.648146 0.69205,1.518885 -1.517874,3.997606 -4.121482,4.622783 -0.437771,0.105118 -1.682329,0.432599 -2.765684,0.727735 -2.285408,0.622611 -6.585073,1.306661 -9.129649,1.452471 -2.104305,0.120583 -3.104871,0.436357 -6.034152,1.904353 -1.988258,0.996407 -4.404443,1.954905 -4.927931,1.954905 -0.11006,0 -0.229632,-0.256584 -0.265716,-0.570187 -0.03608,-0.313603 -0.158911,-0.565969 -0.272948,-0.560813 -0.114038,0.0052 -0.925435,0.08563 -1.803105,0.178823 l -1.595764,0.169449 -0.06296,0.752486 c -0.06998,0.836369 -0.362914,0.985624 -1.511518,0.770145 -0.896585,-0.168201 -2.594586,-1.660615 -2.594586,-2.280444 0,-0.487986 0.456886,-0.996254 1.10168,-1.225578 0.669578,-0.238138 0.145522,-0.551332 -0.922526,-0.551332 -0.866708,0 -1.138798,0.09838 -1.629675,0.589259 -0.76001,0.76001 -1.110161,2.085461 -0.980897,3.71306 0.05661,0.712734 0.09034,1.295712 0.07496,1.295509 -0.01538,-2.04e-4 -0.296632,-0.425635 -0.625009,-0.945401 z m 15.836589,-3.954096 c 0,-0.604922 -0.819045,-1.682888 -1.537824,-2.023971 -0.894697,-0.424562 -0.933022,-0.421568 -1.507088,0.117739 -0.533008,0.500735 -0.631698,1.000561 -0.197559,1.000561 0.155276,0 0.785073,0.274975 1.399549,0.611057 1.270403,0.694834 1.842922,0.786358 1.842922,0.294614 z m 1.036703,-2.363963 c 0.506361,-0.338481 -0.691892,-1.277946 -1.526215,-1.196597 -0.765401,0.07463 -1.005266,0.714715 -0.426439,1.137964 0.439956,0.321704 1.510994,0.353864 1.952654,0.05863 z m -3.368248,-0.77062 c 0.122854,-0.373043 -0.470377,-0.31951 -0.795092,0.07175 -0.239784,0.288922 -0.212172,0.321818 0.217548,0.259176 0.270704,-0.03946 0.530599,-0.188378 0.577544,-0.330924 z m 4.612292,-1.113927 c 0,-0.100074 -0.129972,-0.181953 -0.288828,-0.181953 -0.311338,0 -0.590164,0.503279 -0.38982,0.703623 0.146221,0.146221 0.678648,-0.26305 0.678648,-0.52167 z m 1.557442,-0.390114 c 1.002166,-0.344796 1.319694,-0.374996 1.865947,-0.177468 0.515706,0.186482 0.852954,0.175433 1.557193,-0.05101 1.158358,-0.372469 1.277351,-0.742637 0.297799,-0.926402 -1.842713,-0.345695 -5.628739,0.628413 -5.191584,1.335744 0.180672,0.292335 0.04778,0.308677 1.470645,-0.180859 z m 12.419525,-1.554234 c 0.07707,-0.307066 0.278711,-0.518352 0.494696,-0.518352 0.429606,0 1.286228,-0.560182 1.286228,-0.84112 0,-0.261292 -0.963214,-0.249504 -1.46287,0.0179 -0.475046,0.254237 -1.094205,1.373213 -0.917785,1.658668 0.216541,0.350369 0.465206,0.218889 0.599731,-0.3171 z"
     id="path204" />
  <path
     style="fill:#ffffff;stroke-width:0.207341"
     d="m 36.127285,31.705492 c -0.200569,-0.116798 -0.744117,-0.725997 -1.207884,-1.353775 -0.638321,-0.864064 -0.952763,-1.125816 -1.294054,-1.077215 -0.321103,0.04573 -0.470173,0.232973 -0.51802,0.650684 -0.05228,0.456444 -0.14423,0.554565 -0.414682,0.442534 -0.960942,-0.398055 -2.173833,-0.539821 -3.768622,-0.440486 -0.969318,0.06038 -1.669093,0.07345 -1.555055,0.02905 0.114037,-0.0444 1.8868,-0.516255 3.939472,-1.04857 2.052673,-0.532314 4.447366,-1.15595 5.32154,-1.385857 0.874174,-0.229908 1.747337,-0.35741 1.940363,-0.283339 0.329321,0.126372 0.329406,0.167564 0.0014,0.668205 -0.336167,0.513056 -0.329072,0.564525 0.184878,1.341157 0.796195,1.203125 0.653283,1.228969 -0.502237,0.09082 -0.570187,-0.561613 -1.036704,-0.913499 -1.036704,-0.78197 0,0.13153 0.0933,0.29681 0.207341,0.367289 0.114037,0.07048 0.207341,0.589153 0.207341,1.15261 0,0.748013 -0.111903,1.136369 -0.414682,1.439148 -0.468905,0.468905 -0.578253,0.48793 -1.090364,0.189711 z"
     id="path206" />
  <path
     style="fill:#ffffff;stroke-width:0.207341"
     d="m 31.845936,26.371155 c -0.960093,-0.960093 -1.735399,-2.538562 -1.407793,-2.866168 0.204058,-0.204059 3.56842,0.915408 4.112012,1.368241 l 0.490417,0.408537 -0.4769,0.0069 c -0.438652,0.0063 -0.47191,0.08589 -0.414682,0.991766 0.0615,0.973542 0.0545,0.985613 -0.608601,1.049614 -0.567668,0.05479 -0.828223,-0.09266 -1.694453,-0.958888 z"
     id="path208" />
  <path
     style="fill:#ffffff;stroke-width:0.207341"
     d="m 100.24921,104.29687 c -0.741241,-0.0899 -2.254492,-0.17429 -3.362777,-0.18762 -1.610213,-0.0194 -1.993251,-0.0811 -1.906495,-0.30716 0.322571,-0.84061 2.620765,-0.95926 7.135342,-0.36839 2.51211,0.32879 2.74841,0.39386 2.30476,0.63469 -0.62678,0.34022 -2.43297,0.43917 -4.17083,0.22848 z"
     id="path210" />
  <path
     style="fill:#ffffff;stroke-width:0.207341"
     d="m 43.959803,89.969477 c -0.45418,-0.112497 -0.916032,-0.29479 -1.026337,-0.405095 -0.110305,-0.110306 -0.365254,-0.200555 -0.566554,-0.200555 -0.455735,0 -1.831812,-1.184309 -1.831812,-1.576534 0,-0.460608 1.535377,-0.451159 3.11011,0.01914 1.51699,0.453053 3.789287,1.324272 3.997811,1.532797 0.52515,0.525149 -2.214738,0.99398 -3.683218,0.630247 z"
     id="path212" />
  <path
     style="fill:#ffffff;stroke-width:0.207341"
     d="m 42.710527,84.463205 c -0.569279,-0.300557 -1.268312,-0.708793 -1.553405,-0.907192 -0.285093,-0.198398 -1.281049,-0.74306 -2.213234,-1.210359 -0.932185,-0.467299 -1.754095,-0.945444 -1.826467,-1.062544 -0.181422,-0.293547 0.105248,-0.254609 0.72225,0.0981 0.285094,0.162974 0.634981,0.299623 0.777528,0.303664 0.534174,0.01514 0.22192,-0.425511 -0.982443,-1.386429 -0.777049,-0.619978 -1.126157,-1.015725 -0.933033,-1.05768 0.478395,-0.103928 0.373638,-0.36354 -0.468942,-1.162149 l -0.777527,-0.736952 0.687829,-0.0018 c 0.60881,-0.0016 0.671602,-0.05293 0.54658,-0.446835 -0.124365,-0.39184 -0.08266,-0.427396 0.348874,-0.297456 1.373662,0.413624 1.352171,0.422593 0.697464,-0.291078 l -0.622022,-0.678041 0.754162,0.135125 c 0.414789,0.07432 1.487777,0.358708 2.384418,0.631975 l 1.630255,0.496848 -0.869288,0.354276 c -1.087817,0.443336 -1.230091,0.790676 -0.5447,1.329804 l 0.536879,0.422309 h -0.649984 c -0.895001,0 -0.814547,0.307232 0.283049,1.08089 0.513168,0.361714 0.933033,0.792548 0.933033,0.957408 0,0.16486 0.378383,0.710242 0.84085,1.21196 0.63476,0.688633 0.807158,1.018369 0.703386,1.345326 -0.102588,0.323225 0.01286,0.556071 0.455029,0.917747 0.789642,0.645895 0.412787,0.625348 -0.860541,-0.04692 z"
     id="path214" />
  <path
     style="fill:#ffffff;stroke-width:0.207341"
     d="m 36.284616,73.248012 c -1.026336,-0.527427 -2.56584,-1.266637 -3.421121,-1.64269 -0.85528,-0.376052 -1.559271,-0.756203 -1.564424,-0.844779 -0.0052,-0.08857 -0.215085,-0.553869 -0.466516,-1.033984 -0.251431,-0.480116 -0.457148,-0.969959 -0.457148,-1.088539 0,-0.368931 0.757693,-0.239783 2.384418,0.406421 2.559094,1.016581 3.17619,0.76944 2.534494,-1.015041 -0.185844,-0.516811 -0.287607,-0.989692 -0.22614,-1.050846 0.275808,-0.274402 0.853282,0.901685 1.088208,2.216247 0.257019,1.43819 0.863476,2.75241 1.270122,2.75241 0.215273,0 1.449866,1.800118 1.449866,2.114 0,0.358052 -0.802656,0.106208 -2.591759,-0.813199 z"
     id="path216" />
  <path
     style="fill:#ffffff;stroke-width:0.207341"
     d="m 87.29042,103.97218 c -0.912299,-0.27463 -1.817067,-0.50154 -2.010595,-0.50426 -0.193528,-0.003 -1.779684,-0.58205 -3.524791,-1.28743 -2.776615,-1.12232 -3.383933,-1.29376 -4.862315,-1.37261 -1.529791,-0.0816 -1.804028,-0.0348 -2.902769,0.49504 -0.667357,0.32182 -1.306155,0.62831 -1.419552,0.68108 -0.113397,0.0528 0.04988,-0.23977 0.362846,-0.65008 1.036218,-1.358556 0.661531,-1.337403 -0.986033,0.0557 -0.674353,0.57018 -1.342786,1.0367 -1.485408,1.0367 -0.142619,0 -0.519871,-0.34206 -0.838336,-0.76014 -1.240111,-1.628 -1.470491,-1.788126 -2.394345,-1.66421 -0.610861,0.0819 -1.074153,1.5e-4 -1.642965,-0.290039 -0.896558,-0.45739 -0.925938,-0.526302 -0.449053,-1.053254 0.309564,-0.342064 0.310761,-0.379172 0.01223,-0.379172 -0.559252,0 -0.603295,-0.376595 -0.120426,-1.029712 0.253704,-0.343153 0.39978,-0.685414 0.324613,-0.760579 -0.07517,-0.07517 -1.001572,-0.210134 -2.058678,-0.299927 -3.455599,-0.293528 -5.146637,-0.880629 -5.80965,-2.017018 -0.661891,-1.134467 -0.388191,-1.297469 1.415845,-0.843207 0.831689,0.20942 0.888344,0.260787 0.558331,0.506208 -0.289029,0.214938 -0.319033,0.353033 -0.14082,0.648124 0.367787,0.608993 1.328121,0.956465 2.87957,1.041899 2.38267,0.13121 2.38295,-0.03544 0.0041,-2.43647 -1.140374,-1.150994 -2.5004,-2.409378 -3.022281,-2.796408 -1.237063,-0.917414 -4.388885,-2.515961 -8.905443,-4.51668 -1.998752,-0.885396 -3.911469,-1.844451 -4.250484,-2.131236 -0.603359,-0.510402 -0.60543,-0.518743 -0.09803,-0.394588 0.285093,0.06976 1.400335,0.552845 2.478313,1.073521 2.406494,1.162364 3.004705,1.34182 3.652242,1.095627 1.457835,-0.554269 -0.42221,-4.253077 -2.380277,-4.682967 -1.35444,-0.297364 -1.8686,-0.569361 -3.090199,-1.634757 -0.98685,-0.860652 -1.204382,-1.141215 -0.884843,-1.141215 0.748096,0 2.02435,-0.628752 2.292222,-1.129273 0.40337,-0.753708 -0.03354,-1.725823 -1.550316,-3.449406 -2.096642,-2.382512 -2.398059,-2.378666 -1.346513,0.01718 0.639046,1.456013 0.766963,2.073407 0.429578,2.073407 -0.105843,0 -0.390029,-0.528095 -0.631522,-1.173544 -0.604662,-1.616102 -1.10235,-2.247368 -2.080326,-2.638675 -1.14268,-0.457209 -1.171649,-0.44637 -1.322142,0.494768 -0.153522,0.960068 -0.375141,1.050372 -0.720044,0.293392 -0.217078,-0.476434 -0.330177,-0.522254 -1.018149,-0.41248 -0.42567,0.06792 -0.877555,0.05252 -1.00419,-0.03422 -0.449854,-0.308127 -0.910129,-1.497514 -0.910129,-2.351849 0,-1.119575 -0.532461,-1.96544 -2.082514,-3.308276 -1.226921,-1.062898 -1.626091,-1.667423 -0.814042,-1.232827 0.231492,0.123891 0.907941,0.19715 1.50322,0.1628 1.024336,-0.05911 1.086015,-0.09481 1.151188,-0.666376 0.0505,-0.442923 -0.158679,-0.926572 -0.784672,-1.814231 -0.469444,-0.665669 -0.757016,-1.21031 -0.639049,-1.21031 0.234721,0 0.288639,-0.809545 0.08863,-1.330755 -0.06922,-0.180385 -0.245843,-0.32797 -0.392498,-0.32797 -0.331205,0 -0.545372,0.517692 -0.385991,0.933033 0.07565,0.197127 -0.0029,0.311011 -0.214625,0.311011 -0.183684,0 -0.776812,0.419345 -1.318062,0.931874 -1.551666,1.469332 -1.784486,1.252543 -1.575447,-1.466981 0.09632,-1.2531 0.06705,-1.74564 -0.103748,-1.74564 -0.130861,0 -0.237929,0.0933 -0.237929,0.20734 0,0.114038 -0.142265,0.207341 -0.316143,0.207341 -0.365532,0 -0.729357,0.813924 -0.615653,1.377298 0.04275,0.211805 0.121409,0.784266 0.174802,1.272136 l 0.09708,0.887039 -0.654911,-0.113905 c -0.360201,-0.06265 -0.781381,-0.03036 -0.935956,0.07175 -0.404386,0.26713 0.07533,0.927568 1.745355,2.402884 l 1.361964,1.203169 -0.687445,0.588204 c -0.747281,0.639402 -1.250972,0.751073 -1.560071,0.34588 -0.108741,-0.142547 -0.412193,-0.865647 -0.674338,-1.60689 -0.617035,-1.744733 -1.133118,-2.455078 -2.097293,-2.886753 -0.725876,-0.324983 -0.753623,-0.368384 -0.383358,-0.599616 0.826365,-0.516075 0.277705,-1.60485 -1.385302,-2.749029 l -0.923648,-0.635486 0.962284,-1.074218 c 1.411829,-1.576055 1.473672,-1.590279 2.434709,-0.559996 0.769329,0.824761 0.798807,0.900003 0.431287,1.100837 -0.568825,0.310838 -0.698747,0.572145 -0.702319,1.412555 -0.0033,0.778065 0.639649,1.938505 1.298606,2.343789 0.593463,0.365005 0.765034,-0.186722 0.767675,-2.468633 0.0019,-1.672445 -0.07351,-2.197896 -0.390147,-2.717152 -0.58498,-0.959321 -1.752007,-1.596378 -2.970684,-1.621638 -0.862026,-0.01787 -1.11364,-0.118091 -1.53955,-0.613241 -0.670494,-0.779497 -0.624244,-1.915442 0.07501,-1.842353 0.373709,0.03906 0.48316,-0.08696 0.595473,-0.685645 0.15467,-0.824463 0.692268,-1.267084 1.756597,-1.446262 1.463089,-0.24631 1.644896,-0.316227 2.15893,-0.83026 0.289113,-0.289114 0.52566,-0.663704 0.52566,-0.832424 0,-0.168719 -0.326561,-0.955227 -0.725692,-1.747794 -0.751115,-1.491516 -0.907371,-2.351332 -0.475786,-2.618066 0.137449,-0.08495 0.907201,-0.16401 1.710561,-0.175693 2.097192,-0.0305 4.055456,-1.148171 3.790034,-2.163146 -0.09768,-0.373533 -0.02343,-0.400304 0.855232,-0.30836 1.10162,0.115275 1.896194,-0.211703 2.203576,-0.906801 0.246026,-0.556353 0.03469,-0.551049 2.292952,-0.05755 1.020028,0.222905 1.931663,0.328215 2.025856,0.234022 0.16024,-0.16024 -0.345981,-0.645201 -1.235403,-1.18352 -0.335706,-0.203184 -0.238504,-0.277581 0.755066,-0.577913 0.627205,-0.189589 2.026755,-0.493668 3.11011,-0.67573 1.083355,-0.182063 2.221686,-0.458496 2.529627,-0.614296 0.30794,-0.1558 0.803028,-0.283272 1.100197,-0.283272 0.444244,0 0.616795,0.172911 0.970508,0.972537 0.380401,0.859964 0.416539,1.237967 0.312199,3.265616 -0.0649,1.261192 -0.257271,2.790421 -0.427489,3.398285 -0.273532,0.976805 -0.273694,1.091472 -0.0015,0.986977 0.212622,-0.08159 0.409009,0.122075 0.633706,0.657189 0.263302,0.627054 0.303028,1.291144 0.207623,3.470847 -0.06489,1.482485 -0.18263,2.912371 -0.261648,3.177523 -0.118047,0.39611 -0.07392,0.470071 0.24743,0.414681 0.35245,-0.06075 0.391057,0.07602 0.39063,1.383971 -2.07e-4,0.798262 -0.07969,1.763909 -0.176511,2.145882 -0.161479,0.637046 -0.141444,0.683516 0.242197,0.561753 0.543527,-0.172509 0.732657,0.160065 0.573498,1.00846 -0.108694,0.57939 -0.201533,0.668709 -0.613266,0.59 -0.558991,-0.106857 -0.701204,0.147137 -0.951891,1.70009 -0.243824,1.510456 -0.03464,1.699465 0.560063,0.506052 0.472747,-0.948679 0.957826,-1.428411 1.199731,-1.186507 0.04937,0.04937 0.327289,1.188344 0.617591,2.531043 0.628443,2.906679 2.269397,8.654886 2.640255,9.248725 0.2297,0.367809 0.193629,0.478598 -0.287872,0.88416 -0.553601,0.466293 -1.004223,1.179949 -1.004223,1.590405 0,0.121535 0.249252,0.220971 0.553894,0.220971 0.759076,0 2.279203,1.594842 2.465216,2.586382 0.185535,0.988984 0.505681,1.139148 0.505681,0.237189 0,-0.39913 0.0933,-0.783355 0.207341,-0.853835 0.114037,-0.07048 0.207341,-0.042 0.207341,0.06329 0,0.105288 0.452668,0.651298 1.005929,1.213355 0.55326,0.562057 1.590761,1.950945 2.305558,3.08642 1.470286,2.335584 2.055745,3.111068 3.889207,5.151517 1.016106,1.13082 1.266238,1.537886 1.173078,1.909069 -0.2341,0.93273 1.806393,3.241441 4.275095,4.83704 1.405029,0.908115 4.117012,2.092258 6.005095,2.622026 1.081288,0.303395 1.471265,0.559718 2.659725,1.748178 1.850291,1.850292 3.192745,2.526795 5.260272,2.650835 1.304842,0.0783 1.606795,0.16183 1.686505,0.46664 0.139677,0.53413 1.003045,0.91818 3.67101,1.633 1.294313,0.34678 2.436143,0.71335 2.537395,0.81461 0.249437,0.24943 -1.33478,0.86566 -2.179757,0.84788 -0.36825,-0.008 -1.416023,-0.23879 -2.328322,-0.51342 z M 77.234398,97.035431 c 0,-0.114037 -0.139955,-0.207341 -0.311011,-0.207341 -0.171056,0 -0.311011,0.0933 -0.311011,0.207341 0,0.114037 0.139955,0.207341 0.311011,0.207341 0.171056,0 0.311011,-0.0933 0.311011,-0.207341 z M 62.925393,87.964277 c -0.0049,-0.714933 -1.826746,-3.369286 -2.312522,-3.369286 -0.51729,0 0.220975,1.944688 1.161019,3.058275 0.622175,0.737036 1.155428,0.881063 1.151503,0.311011 z M 59.817782,83.72416 c 0,-0.482295 -0.06225,-0.601242 -0.227938,-0.435552 -0.125364,0.125365 -0.16573,0.423935 -0.0897,0.66349 0.197973,0.62376 0.317636,0.53789 0.317636,-0.227938 z m -1.036704,-1.838228 c 0,-0.404507 -0.418786,-1.01068 -0.862195,-1.247986 -0.409439,-0.219123 -0.428328,-0.195843 -0.28959,0.356935 0.08163,0.325243 0.245647,0.708502 0.36448,0.851687 0.263515,0.317516 0.787305,0.343705 0.787305,0.03936 z m -3.835802,-4.755205 c 0,-0.266086 -0.116629,-0.52267 -0.259176,-0.570187 -0.170964,-0.05699 -0.259175,0.137075 -0.259175,0.570187 0,0.433112 0.08821,0.627175 0.259175,0.570187 0.142547,-0.04752 0.259176,-0.3041 0.259176,-0.570187 z m -1.347714,-4.373051 c 0,-0.843884 -0.555167,-2.111109 -0.878248,-2.004696 -0.431164,0.142016 -0.418944,0.910607 0.03064,1.926962 0.457033,1.033199 0.847611,1.06902 0.847611,0.07773 z m -9.020469,-2.677802 c -0.412533,-0.455843 -0.638718,-0.40712 -0.445653,0.096 0.06753,0.175975 0.280121,0.319954 0.472431,0.319954 0.319079,0 0.316737,-0.03637 -0.02678,-0.415952 z m -4.032805,-0.506011 c -0.368118,-0.443554 -0.682687,-0.183664 -0.405222,0.334785 0.160644,0.300165 0.291732,0.359734 0.447923,0.203544 0.15619,-0.15619 0.143693,-0.313736 -0.0427,-0.538329 z m 10.979867,-4.261554 c 0,-0.214614 -0.0933,-0.447872 -0.20734,-0.518351 -0.121295,-0.07496 -0.207341,0.140152 -0.207341,0.518351 0,0.3782 0.08605,0.593316 0.207341,0.518352 0.114037,-0.07048 0.20734,-0.303737 0.20734,-0.518352 z M 50.214407,64.44407 c -0.06619,-0.165401 -0.115319,-0.116272 -0.125267,0.125269 -0.009,0.218571 0.04,0.341032 0.1089,0.272135 0.0689,-0.0689 0.07626,-0.247731 0.01636,-0.397404 z m -9.349229,-0.865442 c -0.09295,-0.495453 -0.03967,-0.772572 0.184265,-0.958421 0.173261,-0.143793 0.31502,-0.349836 0.31502,-0.457873 0,-0.567147 -3.249138,-4.314289 -3.74091,-4.314289 -0.309013,0 -0.23677,0.482936 0.230141,1.538466 0.235787,0.533036 0.39583,1.067778 0.355651,1.188315 -0.04018,0.120538 -0.443028,-0.579896 -0.89522,-1.556519 -0.452192,-0.976621 -0.904828,-1.779412 -1.005856,-1.78398 -0.567023,-0.02563 0.829051,4.715879 1.771656,6.017105 0.63179,0.872162 1.004217,1.004968 1.418472,0.505822 0.356258,-0.429263 0.777115,-0.389045 1.084821,0.103671 0.365438,0.585159 0.432163,0.518356 0.28196,-0.282297 z m 6.202866,-0.495231 c 0.393895,-0.954414 0.464399,-1.70314 0.182412,-1.937169 -0.18557,-0.154009 -0.287795,-0.67031 -0.287795,-1.453553 0,-1.122767 -0.03923,-1.224554 -0.518352,-1.344805 -0.35645,-0.08946 -0.518352,-0.272602 -0.518352,-0.586343 0,-0.250935 -0.133674,-0.637359 -0.297053,-0.858721 -0.517601,-0.701296 -0.835132,-0.05975 -0.914777,1.848243 -0.07827,1.874957 0.155593,2.702192 1.122155,3.969421 0.610359,0.800221 1.003484,0.916052 1.231762,0.362927 z m 3.620443,-0.414681 c -0.0054,-0.489108 -0.03648,-0.518358 -0.218562,-0.205699 -0.116741,0.20047 -0.155049,0.457054 -0.08513,0.570187 0.21438,0.346873 0.310286,0.23177 0.303692,-0.364488 z M 33.900199,59.83474 c 0,-0.678947 -0.210218,-1.180027 -0.436408,-1.040234 -0.215392,0.133119 -0.251396,1.199391 -0.04739,1.4034 0.279073,0.279074 0.483795,0.125397 0.483795,-0.363166 z M 49.84865,58.250656 c 0.272555,-1.270885 0.281446,-1.646655 0.03896,-1.646655 -0.263275,0 -0.417422,0.487419 -0.573131,1.812257 -0.171446,1.458742 0.211251,1.340097 0.534168,-0.165602 z m -0.815757,-1.076468 c 0.0017,-0.42764 -0.07975,-0.777527 -0.181092,-0.777527 -0.249016,0 -0.479937,1.307545 -0.309406,1.751946 0.205736,0.536135 0.486608,-0.02185 0.490498,-0.974419 z m -6.01288,0.195104 c -0.004,-0.577522 -0.313986,-1.090824 -0.488335,-0.808722 -0.182974,0.296058 0.09031,1.510961 0.309414,1.375544 0.100153,-0.0619 0.180667,-0.316968 0.178921,-0.566822 z M 32.133206,57.231104 c 0.283455,-0.313215 0.345676,-0.631467 0.264413,-1.352432 l -0.106271,-0.94283 0.67701,0.127008 c 0.863484,0.161991 1.114941,-0.206957 0.550524,-0.807751 -0.705012,-0.750451 -2.661472,-1.836024 -3.176322,-1.762432 -0.459729,0.06571 -0.448084,0.100222 0.320367,0.949389 0.847112,0.936091 0.692188,1.16413 -0.307348,0.452398 -0.668739,-0.476184 -0.780702,-0.243729 -0.263097,0.546236 0.469614,0.716721 0.262621,0.808296 -0.632829,0.279967 -0.831089,-0.490354 -1.097016,-0.436921 -0.779373,0.156601 0.262788,0.491024 2.640629,2.763447 2.891644,2.763447 0.104829,0 0.357405,-0.184321 0.561282,-0.409601 z m 3.029652,-0.384979 c -0.270186,-0.504847 -0.826459,-0.954778 -0.984745,-0.796492 -0.199747,0.199747 0.526294,1.17639 0.874534,1.17639 0.239708,0 0.265656,-0.08944 0.110211,-0.379898 z m -1.47,-0.345794 c 0,-0.171056 -0.134448,-0.311011 -0.298774,-0.311011 -0.346393,0 -0.580224,0.295933 -0.386725,0.489432 0.247805,0.247804 0.685499,0.133882 0.685499,-0.178421 z m 3.11011,-2.281176 c 0,-0.335389 -2.104066,-1.971285 -3.361026,-2.613172 -0.976563,-0.498698 -1.615484,-0.51057 -1.61412,-0.02999 0.0021,0.753318 0.925637,1.517099 2.694399,2.228408 1.994575,0.802119 2.280747,0.85416 2.280747,0.414757 z m 0.829363,-1.751375 c 0,-0.347626 -2.76502,-1.529456 -3.814309,-1.63032 -1.090349,-0.10481 -1.2132,0.213767 -0.182217,0.472527 0.312887,0.07853 1.036869,0.354957 1.608849,0.614283 1.73733,0.787675 2.387677,0.935715 2.387677,0.54351 z m 8.888775,-0.620577 c -0.116953,-0.335492 -0.345357,-0.72013 -0.507566,-0.854751 -0.372274,-0.30896 -0.371142,-0.155748 0.0055,0.745703 0.374016,0.895144 0.809033,0.98963 0.502059,0.109048 z m -9.426428,-1.100575 c -0.08109,-0.142547 -0.279285,-0.413194 -0.440424,-0.601438 -0.197612,-0.230851 -0.221092,-0.386692 -0.07213,-0.478753 0.400305,-0.247402 0.233058,-0.483617 -0.786658,-1.111054 -0.554127,-0.340958 -1.217893,-0.96034 -1.475035,-1.376405 -0.593559,-0.960399 -0.720438,-0.84268 -0.318773,0.295759 0.172274,0.488276 0.313225,1.13969 0.313225,1.447586 0,0.599886 0.540148,1.203911 1.555055,1.738956 0.765385,0.403501 1.432173,0.449967 1.224743,0.08535 z m 8.437577,-1.132562 c -0.19917,-0.342238 -0.216192,-0.337537 -0.222015,0.0613 -0.007,0.479963 0.256112,0.854199 0.366896,0.521843 0.03896,-0.116868 -0.02624,-0.379283 -0.144881,-0.583145 z m -8.145328,-1.872105 c -0.07378,-0.639255 -0.716926,-0.903361 -0.918793,-0.377303 -0.148398,0.386719 0.256497,0.945717 0.685005,0.945717 0.204114,0 0.278516,-0.180896 0.233788,-0.568414 z m 10.808436,-0.397293 c 0.441559,-0.561353 0.98277,-2.179303 1.091493,-3.263028 0.09741,-0.970906 -0.40844,-0.878866 -0.661415,0.120346 -0.371931,1.469085 -0.653158,1.884482 -0.535467,0.790938 0.05523,-0.513168 0.156532,-1.212943 0.225118,-1.555055 0.08212,-0.409646 0.01412,-0.763605 -0.199184,-1.036703 -0.3228,-0.413292 -0.324948,-0.413304 -0.641186,-0.0036 -0.775338,1.004483 -1.215657,4.156187 -0.712108,5.09708 0.301604,0.563553 0.92262,0.498547 1.432749,-0.149975 z M 33.070836,45.511276 c 0,-0.171056 -0.0933,-0.311011 -0.207341,-0.311011 -0.114037,0 -0.20734,0.139955 -0.20734,0.311011 0,0.171056 0.0933,0.311011 0.20734,0.311011 0.114038,0 0.207341,-0.139955 0.207341,-0.311011 z m 15.55055,-6.945912 c 0,-0.114038 -0.0933,-0.207341 -0.207341,-0.207341 -0.114037,0 -0.20734,0.0933 -0.20734,0.207341 0,0.114037 0.0933,0.20734 0.20734,0.20734 0.114038,0 0.207341,-0.0933 0.207341,-0.20734 z"
     id="path218" />
  <path
     style="fill:#ffffff;stroke-width:0.207341"
     d="m 100.14554,104.29737 c -0.79826,-0.0885 -2.314439,-0.17244 -3.369285,-0.1866 -1.089052,-0.0146 -1.917901,-0.11306 -1.917901,-0.22777 0,-0.11111 0.29986,-0.35708 0.666356,-0.5466 0.563317,-0.29131 1.052253,-0.32288 3.161945,-0.20416 1.372575,0.0772 3.335315,0.25776 4.361655,0.40115 1.71496,0.23961 1.82604,0.28269 1.37173,0.53203 -0.62514,0.34309 -2.4018,0.4395 -4.2745,0.23195 z"
     id="path220" />
  <path
     style="fill:#ffffff;stroke-width:0.207341"
     d="m 114.9704,104.10344 c -0.47138,-0.13444 -0.44319,-0.16056 0.31101,-0.28819 0.45615,-0.0772 1.66909,-0.13116 2.69543,-0.11992 1.48153,0.0162 1.69516,0.0529 1.0367,0.17819 -1.4004,0.26638 -3.49722,0.38561 -4.04314,0.22992 z"
     id="path222" />
</svg>
