<?xml version="1.0" encoding="UTF-8" standalone="no"?>
<svg
   viewBox="0 0 128 128"
   version="1.1"
   id="svg8"
   sodipodi:docname="github.svg"
   inkscape:version="1.1.2 (1:1.1+202202050950+0a00cf5339)"
   xmlns:inkscape="http://www.inkscape.org/namespaces/inkscape"
   xmlns:sodipodi="http://sodipodi.sourceforge.net/DTD/sodipodi-0.dtd"
   xmlns="http://www.w3.org/2000/svg"
   xmlns:svg="http://www.w3.org/2000/svg">
  <defs
     id="defs12" />
  <sodipodi:namedview
     id="namedview10"
     pagecolor="#ffffff"
     bordercolor="#666666"
     borderopacity="1.0"
     inkscape:pageshadow="2"
     inkscape:pageopacity="0.0"
     inkscape:pagecheckerboard="0"
     showgrid="false"
     inkscape:zoom="6.59375"
     inkscape:cx="63.924171"
     inkscape:cy="75.146919"
     inkscape:window-width="1848"
     inkscape:window-height="1016"
     inkscape:window-x="72"
     inkscape:window-y="27"
     inkscape:window-maximized="1"
     inkscape:current-layer="svg8" />
  <ellipse
     style="fill:#ffffff;stroke:#ffffff;stroke-width:0"
     id="path1455"
     ry="57.313175"
     rx="58.186272"
     cy="65.237473"
     cx="64.026131" />
  <g
     fill="#181616"
     id="g6">
    <path
       fill-rule="evenodd"
       clip-rule="evenodd"
       d="M64 5.103c-33.347 0-60.388 27.035-60.388 60.388 0 26.682 17.303 49.317 41.297 57.303 3.017.56 4.125-1.31 4.125-2.905 0-1.44-.056-6.197-.082-11.243-16.8 3.653-20.345-7.125-20.345-7.125-2.747-6.98-6.705-8.836-6.705-8.836-5.48-3.748.413-3.67.413-3.67 6.063.425 9.257 6.223 9.257 6.223 5.386 9.23 14.127 6.562 17.573 5.02.542-3.903 2.107-6.568 3.834-8.076-13.413-1.525-27.514-6.704-27.514-29.843 0-6.593 2.36-11.98 6.223-16.21-.628-1.52-2.695-7.662.584-15.98 0 0 5.07-1.623 16.61 6.19C53.7 35 58.867 34.327 64 34.304c5.13.023 10.3.694 15.127 2.033 11.526-7.813 16.59-6.19 16.59-6.19 3.287 8.317 1.22 14.46.593 15.98 3.872 4.23 6.215 9.617 6.215 16.21 0 23.194-14.127 28.3-27.574 29.796 2.167 1.874 4.097 5.55 4.097 11.183 0 8.08-.07 14.583-.07 16.572 0 1.607 1.088 3.49 4.148 2.897 23.98-7.994 41.263-30.622 41.263-57.294C124.388 32.14 97.35 5.104 64 5.104z"
       id="path2" />
    <path
       d="M26.484 91.806c-.133.3-.605.39-1.035.185-.44-.196-.685-.605-.543-.906.13-.31.603-.395 1.04-.188.44.197.69.61.537.91zm2.446 2.729c-.287.267-.85.143-1.232-.28-.396-.42-.47-.983-.177-1.254.298-.266.844-.14 1.24.28.394.426.472.984.17 1.255zM31.312 98.012c-.37.258-.976.017-1.35-.52-.37-.538-.37-1.183.01-1.44.373-.258.97-.025 1.35.507.368.545.368 1.19-.01 1.452zm3.261 3.361c-.33.365-1.036.267-1.552-.23-.527-.487-.674-1.18-.343-1.544.336-.366 1.045-.264 1.564.23.527.486.686 1.18.333 1.543zm4.5 1.951c-.147.473-.825.688-1.51.486-.683-.207-1.13-.76-.99-1.238.14-.477.823-.7 1.512-.485.683.206 1.13.756.988 1.237zm4.943.361c.017.498-.563.91-1.28.92-.723.017-1.308-.387-1.315-.877 0-.503.568-.91 1.29-.924.717-.013 1.306.387 1.306.88zm4.598-.782c.086.485-.413.984-1.126 1.117-.7.13-1.35-.172-1.44-.653-.086-.498.422-.997 1.122-1.126.714-.123 1.354.17 1.444.663zm0 0"
       id="path4" />
  </g>
  <path
     style="fill:#ffffff;stroke:#ffffff;stroke-width:0"
     d="m 48.44589,121.86786 c 0.718111,-0.7935 0.793042,-2.0065 0.59173,-9.57898 l -0.09916,-3.73007 -0.924205,0.19232 c -3.242974,0.67484 -7.748251,0.67669 -10.327049,0.004 -2.655451,-0.69243 -5.090677,-2.05994 -6.680197,-3.75126 -1.076052,-1.14497 -1.683791,-2.08062 -2.351719,-3.62061 -1.915824,-4.41715 -3.790389,-6.900426 -6.588937,-8.728502 -1.25135,-0.817409 -2.350711,-1.933885 -2.350711,-2.387304 0,-1.052743 1.994791,-1.46012 4.283473,-0.874775 2.942501,0.752566 5.477748,2.781928 7.637562,6.113562 1.821698,2.81007 3.230898,4.146307 5.573381,5.284819 1.806212,0.87786 3.044517,1.1001 5.610985,1.007 2.256945,-0.0819 3.57058,-0.34834 5.474371,-1.11048 l 0.956938,-0.38309 0.102709,-0.774258 c 0.285062,-2.148905 1.596165,-5.034627 2.970798,-6.538695 l 0.76997,-0.842469 -0.500521,-0.07954 C 52.320021,92.026025 51.344076,91.880698 50.42654,91.746821 35.927271,89.631243 27.980921,82.25523 26.007663,69.080569 25.479126,65.55173 25.444291,60.404409 25.931715,57.85782 c 0.767664,-4.010736 2.364426,-7.431748 4.974826,-10.65841 l 0.831725,-1.028078 -0.319951,-1.095145 c -1.217091,-4.165914 -1.143155,-8.271881 0.231365,-12.848699 0.21293,-0.709005 0.488082,-1.48664 0.611449,-1.728078 l 0.224304,-0.438978 1.615103,0.09165 c 2.524588,0.143259 5.322774,1.012529 8.708004,2.705184 1.472259,0.736147 4.136526,2.284924 5.393611,3.135384 l 0.657125,0.444568 1.08695,-0.281657 c 5.307197,-1.375234 11.671984,-2.00303 16.973205,-1.674164 4.141192,0.256902 7.766842,0.80149 11.118089,1.669983 l 1.070696,0.277477 2.038309,-1.282235 c 2.341586,-1.473016 5.965991,-3.287332 7.953001,-3.981136 1.879266,-0.656184 3.871381,-1.056019 5.275532,-1.058844 l 1.180744,-0.0024 0.301433,0.703212 c 0.411222,0.959343 1.14736,3.810426 1.365162,5.28731 0.224641,1.523263 0.22568,4.82013 0.002,6.218009 -0.09345,0.583886 -0.346497,1.69308 -0.562335,2.464875 l -0.392429,1.403264 0.833128,1.023277 c 2.640224,3.242813 4.263699,6.811548 4.976849,10.940149 0.35197,2.037587 0.41427,6.38264 0.13042,9.095246 -1.06994,10.224924 -5.41945,17.180937 -13.198424,21.107749 -3.20542,1.618092 -8.840544,3.164961 -12.992606,3.566535 -0.60474,0.05849 -1.099526,0.138683 -1.099526,0.178208 0,0.03953 0.31105,0.417829 0.691224,0.840674 1.431879,1.592593 2.370342,3.593262 2.981777,6.356718 0.339893,1.536192 0.346056,1.733702 0.351704,11.269752 0.0032,5.33839 0.02022,9.88432 0.03791,10.10206 0.01769,0.21774 0.200726,0.64428 0.406742,0.94787 l 0.374579,0.55197 H 63.971925 c -15.601655,0 -15.788257,-0.004 -15.526035,-0.29328 z m -5.005396,-17.36112 c 1.149064,-0.48011 0.661844,-1.75792 -0.670283,-1.75792 -0.767055,0 -1.367367,0.39088 -1.367367,0.89034 0,0.87753 0.997427,1.30221 2.03765,0.86758 z m 4.624489,-0.61487 c 1.098575,-0.5681 0.681299,-1.74969 -0.617898,-1.74969 -0.647423,0 -1.494478,0.60935 -1.494478,1.07509 0,0.77536 1.185436,1.15393 2.112376,0.6746 z M 38.790899,103.726 c 0.883117,-0.61856 0.05076,-1.73548 -1.29332,-1.73548 -0.683502,0 -0.947816,0.21184 -0.947816,0.75964 0,0.97751 1.380536,1.57863 2.241136,0.97584 z m -4.133446,-2.40188 c 0.302946,-0.46236 0.174429,-0.99901 -0.362413,-1.513339 -0.817726,-0.783429 -1.840064,-0.61408 -1.840064,0.304809 0,0.54034 0.250786,0.93738 0.805888,1.27584 0.648419,0.39537 1.107937,0.37322 1.396589,-0.0673 z m -3.199092,-3.363389 c 0.299819,-0.299819 0.302811,-0.713644 0.0093,-1.281303 -0.264385,-0.511261 -0.650895,-0.755257 -1.196395,-0.755257 -0.833467,0 -0.877224,1.211012 -0.06835,1.891635 0.523167,0.440215 0.914964,0.485443 1.255481,0.144925 z m -2.366946,-3.835145 c 0.08026,-0.83864 -0.82244,-1.591602 -1.483791,-1.237657 -0.797137,0.426616 -0.02764,1.888335 0.944666,1.794478 0.434304,-0.04192 0.495939,-0.105582 0.539125,-0.556821 z m -2.576858,-2.422453 c 0.0715,-0.504835 -0.378753,-0.93536 -0.978224,-0.93536 -0.703929,0 -0.921228,0.431895 -0.491905,0.977691 0.257191,0.326965 0.421917,0.394745 0.8687,0.357441 0.445515,-0.0372 0.560943,-0.113923 0.601429,-0.399772 z"
     id="path1030" />
  <path
     style="fill:#ffffff;stroke:#ffffff;stroke-width:0"
     d="m 61.671254,122.46566 -13.778983,-0.077 0.334794,-0.30296 c 0.917029,-0.82984 0.988755,-1.55305 0.836882,-8.43829 l -0.112303,-5.09134 -0.930799,0.19371 c -3.249545,0.67624 -7.752462,0.6787 -10.333641,0.006 -4.320111,-1.12651 -7.538133,-3.74335 -9.033342,-7.34574 -1.655542,-3.988684 -3.78405,-6.858267 -6.381183,-8.602895 -1.463905,-0.98338 -2.557039,-2.06882 -2.557039,-2.539041 0,-1.052743 1.994791,-1.46012 4.283473,-0.874775 2.990043,0.764724 5.437998,2.747177 7.768263,6.291051 1.766013,2.685759 3.267305,4.077791 5.584821,5.17837 1.662443,0.7895 2.983536,1.01781 5.415576,0.93592 2.168961,-0.073 3.711147,-0.38325 5.535032,-1.1134 l 0.949545,-0.38013 0.102709,-0.774258 c 0.285062,-2.148905 1.596165,-5.034627 2.970798,-6.538695 l 0.76997,-0.842469 -0.500521,-0.07817 C 52.320021,92.028145 51.17346,91.851955 50.047393,91.679606 35.761972,89.493158 27.967532,82.165837 26.007663,69.080569 25.479126,65.55173 25.444291,60.404409 25.931715,57.85782 c 0.40122,-2.096211 1.255641,-4.653895 2.139441,-6.404353 0.521983,-1.033839 1.921725,-3.13844 2.826125,-4.249255 l 0.833129,-1.023277 -0.390107,-1.403264 c -0.595617,-2.142504 -0.740148,-3.191453 -0.747109,-5.422221 -0.0089,-2.858486 0.549974,-6.064702 1.450316,-8.320061 l 0.341435,-0.855294 1.589518,0.01919 c 1.776528,0.02145 3.237004,0.340608 5.608475,1.225624 2.338321,0.872644 6.118652,2.876025 8.619213,4.56774 l 0.657125,0.444568 1.08695,-0.281657 c 5.307197,-1.375234 11.671984,-2.00303 16.973205,-1.674164 4.149598,0.257424 8.213725,0.869841 11.207256,1.688804 l 1.008203,0.275822 0.963361,-0.643658 c 5.162165,-3.44904 10.776006,-5.688678 14.276807,-5.695723 l 1.180744,-0.0024 0.309953,0.72038 c 0.900266,2.092364 1.52665,5.526289 1.528444,8.379146 0.0015,2.296302 -0.160234,3.52866 -0.730472,5.567862 l -0.390722,1.397245 1.009977,1.256784 c 2.676481,3.330527 4.306078,7.124968 4.939308,11.500973 0.23374,1.615311 0.19032,6.555881 -0.0776,8.831417 -1.17792,10.003621 -5.459159,16.715495 -13.133096,20.589284 -3.20542,1.618092 -8.840544,3.164961 -12.992607,3.566535 -0.604739,0.05849 -1.099526,0.153875 -1.099526,0.211971 0,0.05809 0.178005,0.271076 0.395567,0.473295 1.228045,1.141434 2.415178,3.363731 3.017629,5.648958 0.632811,2.400399 0.712549,4.059619 0.657232,13.676059 -0.0561,9.75316 -0.09985,9.21603 0.830601,10.19905 l 0.466528,0.49289 -2.418375,-0.0367 c -1.330106,-0.0202 -8.618919,-0.0714 -16.197359,-0.11374 z m -18.23076,-17.95892 c 1.141026,-0.47676 0.663216,-1.75792 -0.655616,-1.75792 -0.672408,0 -1.224619,0.3034 -1.332174,0.73193 -0.112623,0.44873 0.07482,0.7923 0.571661,1.04782 0.474394,0.24398 0.791658,0.23909 1.416129,-0.0218 z m 4.624489,-0.61487 c 0.723245,-0.37401 0.84057,-1.14155 0.235135,-1.53825 -0.755922,-0.49529 -2.347511,0.099 -2.347511,0.87661 0,0.76319 1.193243,1.13694 2.112376,0.66164 z M 38.790899,103.726 c 0.559401,-0.39182 0.418537,-1.15216 -0.280419,-1.5136 -0.518738,-0.26825 -1.527737,-0.29088 -1.778726,-0.0399 -0.201012,0.20101 -0.240232,0.8649 -0.06593,1.1159 0.443886,0.6392 1.520664,0.86093 2.12507,0.43759 z m -4.133446,-2.40188 c 0.302946,-0.46236 0.174429,-0.99901 -0.362413,-1.513339 -0.817726,-0.783429 -1.840064,-0.61408 -1.840064,0.304809 0,0.54034 0.250786,0.93738 0.805888,1.27584 0.648419,0.39537 1.107937,0.37322 1.396589,-0.0673 z m -3.199092,-3.363389 c 0.299819,-0.299819 0.302811,-0.713644 0.0093,-1.281303 -0.264385,-0.511261 -0.650895,-0.755257 -1.196395,-0.755257 -0.833467,0 -0.877224,1.211012 -0.06835,1.891635 0.523167,0.440215 0.914964,0.485443 1.255481,0.144925 z m -2.366946,-3.835145 c 0.08026,-0.83864 -0.82244,-1.591602 -1.483791,-1.237657 -0.797137,0.426616 -0.02764,1.888335 0.944666,1.794478 0.434304,-0.04192 0.495939,-0.105582 0.539125,-0.556821 z m -2.581867,-2.455774 c 0.06299,-0.540708 -0.413776,-0.936187 -1.054604,-0.874791 -0.398085,0.03814 -0.517846,0.124614 -0.557178,0.40232 -0.0775,0.54715 0.389872,0.958455 1.028132,0.904803 0.450062,-0.03783 0.545967,-0.108873 0.58365,-0.432332 z"
     id="path1186" />
  <path
     style="fill:#ffffff;stroke:#ffffff;stroke-width:0"
     d="m 61.671254,122.46566 -13.778983,-0.077 0.334794,-0.30296 c 0.914035,-0.82713 0.976341,-1.4344 0.836397,-8.15202 l -0.112028,-5.37756 -0.930693,0.19368 c -3.249442,0.67622 -7.752396,0.67866 -10.333537,0.006 -2.655451,-0.69244 -5.090677,-2.05995 -6.680197,-3.75127 -1.137969,-1.21086 -1.669452,-2.06283 -2.652403,-4.25185 -1.690751,-3.765269 -3.583181,-6.19886 -6.28556,-8.082975 -2.223478,-1.550222 -2.791898,-2.444531 -1.966436,-3.09384 1.169006,-0.919541 4.317859,-0.431416 6.855509,1.062718 1.331399,0.783909 3.489126,3.004279 4.621045,4.755202 0.539236,0.834123 1.33064,1.928528 1.758676,2.432011 1.544811,1.817102 3.912094,3.256314 6.19921,3.768864 2.357305,0.52828 5.923628,0.18238 8.545897,-0.82887 l 1.168053,-0.45045 0.103386,-0.779354 c 0.286396,-2.158962 1.595567,-5.038328 2.979062,-6.552092 0.427657,-0.467925 0.719525,-0.850949 0.648596,-0.851165 -0.07093,-1.52e-4 -1.215607,-0.170712 -2.54373,-0.37888 C 39.318415,90.010511 32.481177,85.71461 28.748848,78.125739 26.817043,74.197836 25.919587,70.381225 25.633357,64.876482 c -0.239867,-4.613114 0.156997,-7.633927 1.470012,-11.189278 0.786689,-2.13018 2.158519,-4.474346 3.793912,-6.482992 l 0.833129,-1.023277 -0.390107,-1.403264 c -0.595617,-2.142504 -0.740148,-3.191453 -0.747109,-5.422221 -0.0089,-2.858486 0.549974,-6.064702 1.450316,-8.320061 l 0.341435,-0.855294 1.589518,0.01902 c 1.797894,0.02152 3.201812,0.325858 5.549034,1.202911 2.401012,0.897153 6.152665,2.881928 8.684201,4.594292 l 0.662675,0.448241 1.005572,-0.278341 c 2.900728,-0.802919 7.053754,-1.427324 11.207078,-1.684978 5.347086,-0.33171 12.019225,0.338541 17.284352,1.736302 l 0.793916,0.210765 0.95016,-0.634802 c 5.150958,-3.441359 10.766685,-5.679844 14.266745,-5.686868 l 1.183883,-0.0024 0.291335,0.658611 c 0.889348,2.01052 1.540156,5.604016 1.542443,8.516745 0.0018,2.301193 -0.13735,3.34388 -0.731626,5.48207 l -0.385575,1.387283 1.056091,1.342575 c 2.705953,3.439998 4.255073,7.064379 4.887543,11.435106 0.23374,1.615311 0.19032,6.555881 -0.0776,8.831417 -0.83459,7.087856 -3.095846,12.253462 -7.120411,16.265831 -4.216677,4.203899 -10.247222,6.769195 -18.360742,7.810361 -1.914716,0.245706 -1.866528,0.207363 -1.187637,0.944947 1.373013,1.491709 2.251731,3.173907 2.856757,5.468904 0.626572,2.376733 0.708741,4.071433 0.659415,13.600223 -0.04998,9.65432 -0.0744,9.34812 0.819522,10.27488 l 0.475424,0.49289 -2.418375,-0.0367 c -1.330106,-0.0202 -8.618919,-0.0714 -16.197359,-0.11374 z M 43.775302,104.24497 c 0.453108,-0.42567 0.450025,-0.65902 -0.01486,-1.1239 -0.642216,-0.64222 -2.11385,-0.41285 -2.307743,0.35968 -0.268917,1.07145 1.408176,1.62328 2.322598,0.76422 z m 4.289681,-0.3531 c 0.723245,-0.37401 0.84057,-1.14155 0.235135,-1.53825 -0.856223,-0.56101 -2.508813,0.18685 -2.295036,1.0386 0.166367,0.66286 1.240464,0.92339 2.059901,0.49965 z M 38.790899,103.726 c 0.883117,-0.61856 0.05076,-1.73548 -1.29332,-1.73548 -0.684362,0 -0.947816,0.21186 -0.947816,0.76219 0,0.91114 1.43817,1.53571 2.241136,0.97329 z m -4.199557,-2.35526 c 0.541534,-0.54153 0.05975,-1.551309 -0.937181,-1.964252 -0.364994,-0.151186 -0.503241,-0.139855 -0.819143,0.06713 -0.665038,0.435749 -0.455241,1.380582 0.425846,1.917812 0.619138,0.37752 0.937218,0.37257 1.330478,-0.0207 z m -3.172004,-3.422682 c 0.337323,-0.305274 0.351661,-0.681967 0.04829,-1.26863 -0.658845,-1.274064 -2.283768,-0.848708 -1.743208,0.456319 0.213876,0.516342 0.823217,1.063305 1.184568,1.063305 0.128154,0 0.357813,-0.112946 0.510353,-0.250994 z m -2.32775,-3.739852 c 0.09593,-0.836812 -0.846621,-1.661371 -1.499622,-1.311897 -0.762328,0.407985 0.04882,1.875784 0.985984,1.784184 0.383436,-0.03748 0.473262,-0.120073 0.513638,-0.472287 z m -2.791196,-2.16756 c 0.131941,-0.05063 0.239892,-0.253796 0.239892,-0.451481 0,-0.453884 -0.59555,-0.85984 -1.165553,-0.794497 -0.333671,0.03825 -0.437032,0.136785 -0.473437,0.451332 -0.07234,0.625038 0.699169,1.063234 1.399098,0.794646 z"
     id="path1225" />
</svg>
